<?xml version="1.0" encoding="utf-8"?>
<!-- Generator: Adobe Illustrator 25.0.0, SVG Export Plug-In . SVG Version: 6.00 Build 0)  -->
<svg version="1.1" id="Outline" xmlns="http://www.w3.org/2000/svg" xmlns:xlink="http://www.w3.org/1999/xlink" x="0px" y="0px"
	 viewBox="0 0 512 512" style="enable-background:new 0 0 512 512;" xml:space="preserve">
<style type="text/css">
	.st0{fill:#FFFFFF;}
</style>
<path class="st0" d="M405.3,42.7H384V21.3C384,9.6,374.4,0,362.7,0c-11.8,0-21.3,9.6-21.3,21.3v21.3H170.7V21.3
	c0-11.8-9.6-21.3-21.3-21.3S128,9.6,128,21.3v21.3h-21.3C47.8,42.7,0.1,90.5,0,149.3v256C0.1,464.2,47.8,511.9,106.7,512h298.7
	c58.9-0.1,106.6-47.8,106.7-106.7v-256C511.9,90.5,464.2,42.7,405.3,42.7z M42.7,149.3c0-35.3,28.7-64,64-64h298.7
	c35.3,0,64,28.7,64,64v21.3H42.7V149.3z M405.3,469.3H106.7c-35.3,0-64-28.7-64-64v-192h426.7v192
	C469.3,440.7,440.7,469.3,405.3,469.3z"/>
<circle class="st0" cx="256" cy="320" r="32"/>
<circle class="st0" cx="149.3" cy="320" r="32"/>
<circle class="st0" cx="362.7" cy="320" r="32"/>
</svg>
