<?xml version="1.0" encoding="utf-8"?>
<!-- Generator: Adobe Illustrator 25.0.0, SVG Export Plug-In . SVG Version: 6.00 Build 0)  -->
<svg version="1.1" id="Layer_1" xmlns="http://www.w3.org/2000/svg" xmlns:xlink="http://www.w3.org/1999/xlink" x="0px" y="0px"
	 viewBox="0 0 512 512" style="enable-background:new 0 0 512 512;" xml:space="preserve">
<style type="text/css">
	.st0{fill:#FFFFFF;}
</style>
<path class="st0" d="M321.9,341.3c140.2-0.8,190.1-75,190.1-138.7c0-35.2-24.6-65.5-59-72.9c2.9-8.3,5.4-15.8,7.1-21.6
	c7.6-25.3,2.6-52.7-13.4-73.8C430.7,12.7,405.2-0.1,378.2,0H133.8c-27-0.1-52.5,12.7-68.6,34.4c-15.9,21.1-20.9,48.5-13.4,73.8
	c1.7,5.7,4.3,13.3,7.1,21.6C24.6,137.1,0,167.5,0,202.7c0,63.7,49.9,137.9,190.1,138.7c1.2,6.5,1.9,13.1,1.9,19.6v65.7
	c1.4,22.1-15.4,41.2-37.5,42.7c-1.7,0.1-3.4,0.1-5.2,0H128c-11.8,0-21.3,9.6-21.3,21.3c0,11.8,9.6,21.3,21.3,21.3h256
	c11.8,0,21.3-9.6,21.3-21.3c0-11.8-9.6-21.3-21.3-21.3h-21.2c-22.2,1.5-41.3-15.3-42.8-37.4c-0.1-1.7-0.1-3.5,0-5.2V361
	C320,354.4,320.7,347.8,321.9,341.3z M437.3,170.7c17.7,0,32,14.3,32,32c0,43.4-34.3,89.6-128.8,95.4c4.7-6.4,10.2-12.3,16.3-17.5
	c34-30.6,61.1-68.2,79.5-110.1C436.7,170.5,437,170.7,437.3,170.7z M42.7,202.7c0-17.7,14.3-32,32-32c0.4,0,0.7-0.2,1-0.2
	c18.4,41.9,45.5,79.4,79.5,110.1c6.1,5.2,11.5,11.1,16.3,17.5C77,292.3,42.7,246.1,42.7,202.7z M224.3,469.3
	c7.1-13.1,10.6-27.8,10.4-42.7V361c0.1-43.4-18.8-84.8-51.9-113c-43.4-41.5-74.5-94.1-90-152c-3.7-12.4-1.2-25.8,6.6-36.1
	c8.1-10.9,20.8-17.3,34.4-17.2h244.4c13.6-0.1,26.3,6.4,34.4,17.3c7.9,10.3,10.3,23.7,6.6,36.1c-15.5,57.9-46.7,110.5-90,151.9
	c-33,28.2-52,69.5-51.9,112.9v65.7c-0.2,14.9,3.3,29.6,10.4,42.7H224.3z"/>
</svg>
