<?xml version="1.0" encoding="utf-8"?>
<!-- Generator: Adobe Illustrator 25.0.0, SVG Export Plug-In . SVG Version: 6.00 Build 0)  -->
<svg version="1.1" id="Layer_1" xmlns="http://www.w3.org/2000/svg" xmlns:xlink="http://www.w3.org/1999/xlink" x="0px" y="0px"
	 viewBox="0 0 512 512" style="enable-background:new 0 0 512 512;" xml:space="preserve">
<style type="text/css">
	.st0{fill:#FFFFFF;}
</style>
<path class="st0" d="M473.6,46.1c-24.3-20.3-56.3-28.8-87.5-23.1l-81.5,14.8C285.8,41.3,268.7,51,256,65.4
	c-12.7-14.4-29.9-24.1-48.7-27.5l-81.4-14.8C67.9,12.5,12.3,50.9,1.7,108.8C0.6,115.1,0,121.6,0,128v230.3
	c0,51.5,36.9,95.7,87.6,104.9l134.1,24.4c22.7,4.1,46,4.1,68.7,0l134.2-24.4c50.7-9.3,87.5-53.4,87.5-104.9V128
	C512,96.4,497.9,66.4,473.6,46.1z M234.7,446.5c-1.8-0.3-3.6-0.6-5.4-0.9L95.2,421.2c-30.4-5.5-52.5-32-52.5-63V128
	c0-35.3,28.7-64,64-64c3.9,0,7.7,0.4,11.5,1L199.7,80c20.2,3.7,34.9,21.3,35,41.9V446.5z M469.3,358.3c0,30.9-22.1,57.4-52.5,63
	l-134.1,24.4c-1.8,0.3-3.6,0.6-5.4,0.9V121.9c0-20.6,14.7-38.3,35-42l81.5-14.9c34.8-6.3,68.1,16.7,74.4,51.5c0.7,3.8,1,7.7,1,11.6
	V358.3z"/>
</svg>
