<?xml version="1.0" encoding="utf-8"?>
<!-- Generator: Adobe Illustrator 25.0.0, SVG Export Plug-In . SVG Version: 6.00 Build 0)  -->
<svg version="1.1" id="Layer_1" xmlns="http://www.w3.org/2000/svg" xmlns:xlink="http://www.w3.org/1999/xlink" x="0px" y="0px"
	 viewBox="0 0 512 512" style="enable-background:new 0 0 512 512;" xml:space="preserve">
<style type="text/css">
	.st0{fill:#FFFFFF;}
</style>
<path class="st0" d="M405.3,512H106.7C47.8,511.9,0.1,464.2,0,405.3V106.7C0.1,47.8,47.8,0.1,106.7,0h298.7
	C464.2,0.1,511.9,47.8,512,106.7v298.7C511.9,464.2,464.2,511.9,405.3,512z M106.7,42.7c-35.3,0-64,28.7-64,64v298.7
	c0,35.3,28.7,64,64,64h298.7c35.3,0,64-28.7,64-64V106.7c0-35.3-28.7-64-64-64H106.7z M199.3,362.8c-8.9,0-17.6-2.4-25.3-6.9
	c-15.4-8.8-24.9-25.3-24.8-43.1V199.2c0-27.5,22.3-49.9,49.8-49.9c8.7,0,17.3,2.3,24.9,6.6l112.6,56.2
	c24.2,13.1,33.3,43.3,20.2,67.5c-4.4,8.2-11.1,15-19.1,19.6l-114.7,57.3C215.6,360.7,207.5,362.8,199.3,362.8L199.3,362.8z
	 M198.8,192.1c-1.2,0-2.3,0.3-3.3,0.9c-2.3,1.3-3.6,3.6-3.6,6.2v113.5c0,4,3.3,7.2,7.2,7.1c1.2,0,2.4-0.3,3.4-0.9l114.7-57.3
	c1.7-1.4,2.7-3.5,2.6-5.7c0.1-2.6-1.3-5-3.6-6.2l-112.5-56.2C202.2,192.7,200.5,192.2,198.8,192.1L198.8,192.1z"/>
</svg>
