<?xml version="1.0" encoding="utf-8"?>
<!-- Generator: Adobe Illustrator 25.0.0, SVG Export Plug-In . SVG Version: 6.00 Build 0)  -->
<svg version="1.1" id="Layer_1" xmlns="http://www.w3.org/2000/svg" xmlns:xlink="http://www.w3.org/1999/xlink" x="0px" y="0px"
	 viewBox="0 0 257.6 308.8" style="enable-background:new 0 0 257.6 308.8;" xml:space="preserve">
<style type="text/css">
	.st0{fill:#090909;}
</style>
<g id="Layer_2_1_">
	<g id="Layer_1-2">
		<g id="SnrvOS.tif">
			<path class="st0" d="M122.8,0h12c3.6,0.5,7.1,0.9,10.7,1.6C163.1,4.8,179.3,13.3,192,26c13.9,13.7,22.7,30.1,25.4,49.4
				c1.3,9.7,1.1,19.6,1.4,29.4c0.1,2.5,0.7,3.8,3,5c22.2,11.7,34.7,30.1,35.4,55.1c0.8,26.5,0.2,53,0.2,79.6
				c0.1,11-2.7,21.8-8.3,31.3c-12.9,21.8-32.3,32.6-57.5,32.7c-41.6,0.1-83.2,0-124.7,0.1c-11.2,0-21.8-2-31.6-7.3
				c-21.2-11.4-33.6-29.3-34.5-53.5c-1-27.5-0.8-55.1-0.1-82.6c0.6-24.8,12.8-43.2,34.6-55c2.9-1.6,3.9-3.1,3.9-6.3
				c-0.2-11.8-0.6-23.7,2.5-35.3c9.4-34.3,31.2-56.2,65.4-65.8C112.1,1.4,117.5,0.9,122.8,0z M128.7,282.9c20.8,0,41.6,0,62.4,0
				c2.7,0.1,5.4,0,8.1-0.4c19-2.9,32.5-19.1,32.6-39.3c0.1-24.9,0.1-49.8,0-74.8c-0.1-23.1-16.9-39.9-40.1-39.9
				c-41.9,0-83.8,0-125.7,0c-23.3,0-40,16.8-40.1,40.1c0,24.6,0,49.2,0,73.9c0,3.1,0.3,6.2,0.8,9.3c3.7,19.4,21.4,31.4,37.7,31.1
				C85.9,282.6,107.3,282.9,128.7,282.9z M192.8,102.8c2.4-25.7-4.1-49.9-28.6-66.4C142.6,22,113.8,22.3,93,36.8
				c-24.7,17.2-30.4,41.8-28,66L192.8,102.8z"/>
			<path class="st0" d="M116.1,205.9c0-4.3-0.1-8.6,0-12.9c0.2-7.4,5.6-12.7,12.8-12.7c7.2,0,12.6,5.3,12.8,12.8
				c0.1,8.5,0.1,17,0,25.6c-0.1,7.4-5.7,12.9-12.6,13c-7.2,0.1-12.7-5.4-12.9-13C116,214.3,116.1,210.1,116.1,205.9z"/>
		</g>
	</g>
</g>
</svg>
