<?xml version="1.0" encoding="utf-8"?>
<!-- Generator: Adobe Illustrator 25.0.0, SVG Export Plug-In . SVG Version: 6.00 Build 0)  -->
<svg version="1.1" id="Layer_1" xmlns="http://www.w3.org/2000/svg" xmlns:xlink="http://www.w3.org/1999/xlink" x="0px" y="0px"
	 viewBox="0 0 328.5 328.7" style="enable-background:new 0 0 328.5 328.7;" xml:space="preserve">
<style type="text/css">
	.st0{fill:#F72369;}
</style>
<g>
	<path class="st0" d="M328.5,311.2c-0.3,0.9-0.7,1.7-1,2.6c-4.8,14.7-22.6,19.7-34.3,9.6c-1-0.8-1.9-1.8-2.8-2.7
		c-41-41-82.1-82.1-123.1-123.1c-0.9-0.9-1.6-2-2.6-3.3c-1.4,1.3-2.3,2.2-3.2,3c-41.3,41.3-82.7,82.7-124,124.1
		c-6.8,6.8-14.7,9-23.7,5.8c-13.9-5-18.3-22.3-8.7-33.5c1-1.1,2-2.2,3.1-3.2c41-41,82.1-82.1,123.1-123.1c0.9-0.9,2-1.6,3.7-2.9
		c-1.7-1.3-3-2.1-3.9-3C89.9,120.2,48.6,78.9,7.3,37.6C-2.9,27.4-2.4,12.4,8.8,4.5C12,2.3,16.2,1.5,19.9,0c0.9,0,1.7,0,2.6,0
		C30.3,1,35.7,5.7,41,11.1c40.1,40.3,80.4,80.5,120.6,120.7c0.8,0.8,1.7,1.6,3.3,3.1c0.8-1.2,1.4-2.4,2.3-3.3
		c40.1-40.2,80.3-80.3,120.4-120.5c5.3-5.3,10.7-10.1,18.5-11.1c0.9,0,1.7,0,2.6,0c3.9,1.6,8,2.7,11.6,4.9c4.8,2.9,6.7,8,8.3,13.1
		c0,2.4,0,4.7,0,7.1c-1.6,6.5-5.8,11.2-10.4,15.8c-40.4,40.3-80.7,80.7-121.1,121c-0.9,0.9-2.1,1.3-3.7,2.3c2,1.7,2.9,2.4,3.7,3.2
		c40.4,40.4,80.8,80.9,121.3,121.2c4.5,4.5,8.6,9.2,10.1,15.6C328.5,306.5,328.5,308.8,328.5,311.2z"/>
</g>
</svg>
