<?xml version="1.0" encoding="utf-8"?>
<!-- Generator: Adobe Illustrator 25.0.0, SVG Export Plug-In . SVG Version: 6.00 Build 0)  -->
<svg version="1.1" id="Layer_1" xmlns="http://www.w3.org/2000/svg" xmlns:xlink="http://www.w3.org/1999/xlink" x="0px" y="0px"
	 viewBox="0 0 308.9 309" style="enable-background:new 0 0 308.9 309;" xml:space="preserve">
<style type="text/css">
	.st0{fill:#090909;}
</style>
<g id="Layer_2_1_">
	<g id="Layer_1-2">
		<g id="r9JOgv.tif">
			<path class="st0" d="M308.9,262.9c-0.9,3.4-1.4,6.9-2.6,10.1c-7.5,21-22.5,33.6-44.7,35.2c-16.5,1.2-33.1,1.1-49.6-0.3
				c-23.7-2-43-22.6-44.2-46.4c-0.8-15.3-0.8-30.7,0-46.1c1.3-24.9,19.4-44.8,44-47.5c18.2-2.2,36.5-2.1,54.7,0.3
				c21.6,3,38.8,21.3,41.8,42.9c0.1,0.8,0.3,1.5,0.6,2.3L308.9,262.9z M283.1,238.2c0-6,0-12.1,0-18.1c-0.1-16.4-11-27.1-27.3-27.1
				c-11.7,0-23.5,0-35.3,0c-16.5,0-27.4,10.9-27.4,27.4c0,11.8,0,23.5,0,35.3c0,16.2,10.8,27.1,26.9,27.2c12,0.1,24.1,0.1,36.2,0
				c16.1-0.2,26.8-10.9,26.9-26.9C283.2,250.1,283.1,244.1,283.1,238.2L283.1,238.2z"/>
			<path class="st0" d="M308.9,95.3c-1.5,5.2-2.3,10.7-4.5,15.5c-8.5,18.4-23,29.1-43.2,30.3c-14.8,0.9-29.7,0.7-44.6,0.2
				c-27.1-1-48.7-23.1-49.1-50.2c-0.3-14.4-0.5-29,0.3-43.4c1.3-24.3,19.8-43.7,43.9-47.2c0.7-0.1,1.3-0.3,2-0.6h48.8
				c0.5,0.2,1.1,0.4,1.7,0.6c20.8,3.3,34.8,14.9,42,34.6c1.2,3.4,1.9,7.1,2.8,10.7L308.9,95.3z M283.1,70.9c0-6.3,0.1-12.7,0-19
				c-0.3-15.1-10.9-25.8-25.9-26c-12.7-0.2-25.5-0.2-38.3,0C204.1,26.1,193.3,37,193.2,52c-0.1,12.5-0.1,24.9,0,37.4
				c0.1,15.2,11,26.2,26.2,26.4c12.4,0.2,24.9,0.1,37.4,0c15.2-0.2,25.9-10.7,26.4-25.9C283.3,83.5,283.1,77.2,283.1,70.9z"/>
			<path class="st0" d="M95.5,0c3.7,0.9,7.4,1.5,11,2.7c20.8,6.9,34.4,25.1,35.1,48.3c0.5,14.3,0.4,28.7-0.3,43.1
				c-1.2,24.3-21.5,45.4-45.8,46.8c-16.3,1-32.7,1-49.1,0C21.6,139.4,1.2,117.8,0.3,93c-0.5-14.8-0.5-29.7,0-44.6
				C1.2,24.5,20.2,4,44.1,0.6C45,0.4,45.8,0.2,46.7,0H95.5z M71.2,25.8L71.2,25.8c-7,0.1-14.1-0.1-21.1,0.1
				c-12.8,0.5-23.5,10.9-23.9,23.8c-0.4,13.5-0.4,27.1-0.1,40.7c0.4,15,11.3,25.2,26.5,25.3c12.2,0.1,24.3,0.1,36.5,0
				c15.9-0.1,26.8-11.1,26.9-27c0-12.1,0-24.1,0-36.2c-0.1-15.7-11-26.6-26.7-26.7C83.2,25.8,77.2,25.8,71.2,25.8z"/>
			<path class="st0" d="M142.1,237.9c-0.3,9,0.2,18.2-1.1,27.1c-3.6,24.2-22,41.7-46.6,43.3c-16.4,1.1-32.9,1-49.3-0.4
				C20.4,305.8,1,284.2,0.3,259.6c-0.4-13.9-0.2-27.7-0.1-41.6c0.2-27.7,22.5-50.2,50.2-50.7c14.9-0.5,29.8-0.6,44.6,0.4
				c24.9,1.6,44.9,22.4,46.3,47.3c0.4,7.6,0.1,15.3,0.1,22.9H142.1z M26.1,238h0.1c0,7.3-0.3,14.7,0.1,22
				c0.5,10.7,9.9,21.5,20.5,22.1c15.3,1,30.7,1.1,46.1,0.4c13.8-0.8,22.9-11.7,23.1-25.4c0.2-12.7,0.2-25.3,0-38
				c-0.2-14.6-10.7-25.6-25.1-26c-13.2-0.3-26.5-0.3-39.8,0c-14,0.4-24.3,10.7-24.9,24.8C25.8,224.6,26,231.3,26.1,238L26.1,238z"/>
		</g>
	</g>
</g>
</svg>
