<?xml version="1.0" encoding="utf-8"?>
<!-- Generator: Adobe Illustrator 25.0.0, SVG Export Plug-In . SVG Version: 6.00 Build 0)  -->
<svg version="1.1" id="Layer_1" xmlns="http://www.w3.org/2000/svg" xmlns:xlink="http://www.w3.org/1999/xlink" x="0px" y="0px"
	 viewBox="0 0 110 110" style="enable-background:new 0 0 110 110;" xml:space="preserve">
<style type="text/css">
	.st0{fill:#D41268;}
	.st1{fill:#FFFFFF;}
</style>
<path class="st0" d="M88.9,110H21.1C9.5,110,0,100.5,0,88.9V21.1C0,9.5,9.5,0,21.1,0h67.8C100.5,0,110,9.5,110,21.1v67.8
	C110,100.5,100.5,110,88.9,110z"/>
<g id="Layer_2_2_">
	<g id="Layer_1-2_1_">
		<g id="X1RWIm.tif">
			<path class="st1" d="M17.3,22.8c0.5-1.4,1.4-2.5,2.9-2.9c0.3-0.1,0.7-0.1,1-0.1c9.4,0,18.8,0,28.2,0c0.2,0,0.4,0,0.5,0v5H24.2
				c-1.5,0-1.8,0.4-1.8,1.8c0,11.3,0,22.7,0,34c0,1.4,0.4,1.8,1.8,1.8h56.7c1.4,0,1.8-0.4,1.8-1.8c0-4.1,0-8.2,0-12.3v-0.9h5
				c0,0.2,0,0.5,0,0.8c0,5,0,10.1,0,15.1c0,2.6-1.5,4.1-4.2,4.1c-20.7,0-41.3,0-62,0c-2.2,0-3.4-1.1-4.2-3L17.3,22.8z"/>
			<path class="st1" d="M17.3,88c0.4-1.8,1.1-3.4,2.5-4.7c1.4-1.2,3-1.9,4.8-1.9c2.6,0,5.2,0,7.8,0c4,0.1,7.3,3.3,7.4,7.4
				c0,0.7,0,1.5,0,2.2s-0.2,1.3-0.8,1.7H17.3V88z"/>
			<path class="st1" d="M44.5,92.7c-0.6-0.4-0.9-1-0.8-1.8c0.1-1.3,0-2.7,0.3-4c0.8-3.2,3.7-5.5,7.1-5.5c2.6,0,5.2,0,7.8,0
				c4,0.1,7.3,3.3,7.4,7.4c0,0.7,0,1.4,0,2.1c0.1,0.8-0.1,1.4-0.8,1.8H44.5z"/>
			<path class="st1" d="M70.8,92.7c-0.6-0.4-0.9-1.1-0.8-1.8c0.1-1.2,0-2.5,0.2-3.7c0.7-3.4,3.8-5.8,7.2-5.8c2.6,0,5.1,0,7.7,0
				c4.1,0,7.4,3.3,7.4,7.4c0,0.7,0,1.4,0,2.1c0.1,0.7-0.2,1.3-0.8,1.7L70.8,92.7z"/>
			<path class="st1" d="M57.5,45c-0.8,0-1.5,0-2.1-0.2c-1.6-0.4-2.8-1.8-2.9-3.5c0-6.8,0-13.5,0-20.3c0-2.1,1.7-3.7,3.9-3.7
				c6.4,0,12.8,0,19.2,0c4.3,0,8.5,0,12.8,0c2.7,0,4.2,1.5,4.2,4.2c0,6.4,0,12.8,0,19.2c0,2.7-1.5,4.2-4.2,4.2c-6.6,0-13.1,0-19.7,0
				c-0.5,0-1,0.2-1.4,0.5c-2.5,2.2-5,4.3-7.6,6.5c-0.5,0.4-0.9,0.7-1.6,0.4c-0.6-0.3-0.8-0.8-0.8-1.5C57.5,48.9,57.5,47,57.5,45z
				 M66.3,31.2c0,2,0,4,0,6c0,1.3,1,1.9,2.1,1.2c3.2-2,6.4-4,9.6-6c1.2-0.7,1.2-1.7,0-2.5c-3.2-2-6.3-4-9.5-5.9
				c-0.5-0.3-1-0.5-1.5-0.2c-0.6,0.3-0.6,0.8-0.6,1.4C66.3,27.2,66.3,29.2,66.3,31.2z"/>
			<path class="st1" d="M27.4,60c0.1-2.3,1-4.2,2.7-5.7s3.8-1.9,6.1-1.8c0-1.1,0-2.1,0-3.1c0-0.2-0.1-0.3-0.2-0.4
				c-1.7-1.7-2.4-3.7-2.3-6c0-0.2,0-0.3,0-0.5c-1-0.2-1.3-0.9-1.3-1.8c0.1-1.5-0.1-3,0.2-4.5c0.5-3.5,3.6-6.2,7.2-6.2
				c1.3,0,2.7-0.1,4,0.1c3.5,0.5,6.1,3.6,6.2,7.1c0,1.1,0,2.3,0,3.5s-0.1,1.4-1.2,1.9c-0.1,0.8-0.1,1.6-0.2,2.4
				c-0.2,1.5-0.9,2.8-1.9,3.9c-0.2,0.3-0.4,0.6-0.4,1c-0.1,0.8,0,1.7,0,2.6c2.9-0.2,5.3,0.6,7.1,2.8c1.1,1.3,1.6,2.9,1.6,4.6
				L27.4,60z M36.2,42.4c0,0.6,0,1,0,1.5c0.1,2.1,1.2,3.6,3.1,4.4s3.8,0.4,5.4-1s1.7-3.3,1.5-5.2c-0.1-0.7-0.8-1.3-1.3-1.9
				C42.1,41.7,39.3,42.6,36.2,42.4L36.2,42.4z M38.6,50.8c0.3,1.4-0.6,2.9,1,3.8c1,0.6,2.3,0.6,3.3-0.1c1.5-0.9,0.6-2.4,0.9-3.7
				C42,51.3,40.4,51.4,38.6,50.8L38.6,50.8z"/>
			<path class="st1" d="M87.4,79H75.3c-0.8-3.1,0-5.9,2.1-7.5c2.1-1.7,5.1-1.8,7.3-0.4C87.1,72.6,88.2,75.3,87.4,79z"/>
			<path class="st1" d="M61,79H49c-0.8-2.8-0.1-5.8,2-7.4c2.1-1.8,5.2-1.9,7.5-0.4C60.7,72.7,61.9,75.4,61,79z"/>
			<path class="st1" d="M34.9,79H22.6c-1.1-4.7,1.3-8.1,5-8.8c3.6-0.7,7.1,2.1,7.3,5.7C34.9,76.9,34.9,78,34.9,79z"/>
		</g>
	</g>
</g>
</svg>
