<?xml version="1.0" encoding="utf-8"?>
<!-- Generator: Adobe Illustrator 25.0.0, SVG Export Plug-In . SVG Version: 6.00 Build 0)  -->
<svg version="1.1" id="Layer_1" xmlns="http://www.w3.org/2000/svg" xmlns:xlink="http://www.w3.org/1999/xlink" x="0px" y="0px"
	 viewBox="0 0 110 110" style="enable-background:new 0 0 110 110;" xml:space="preserve">
<style type="text/css">
	.st0{fill:#D41268;}
	.st1{fill:#FFFFFF;}
</style>
<path class="st0" d="M88.9,110H21.1C9.5,110,0,100.5,0,88.9V21.1C0,9.5,9.5,0,21.1,0h67.8C100.5,0,110,9.5,110,21.1v67.8
	C110,100.5,100.5,110,88.9,110z"/>
<g id="Layer_2_1_">
	<g id="Layer_1-2">
		<g id="_6WTmeY.tif">
			<path class="st1" d="M56.9,92.6h-3.8c-1.3-0.2-2.7-0.3-4-0.5c-7.9-1.3-14.8-4.8-20.5-10.4c-5.7-5.6-9.2-12.4-10.6-20.2
				c-0.2-1.4-0.4-2.8-0.6-4.2v-4.6c0.1-1,0.2-1.9,0.4-2.9c1.4-9.4,5.6-17.3,12.9-23.5c8.5-7.2,18.4-10.1,29.4-8.6
				c9.4,1.2,17.4,5.6,23.5,12.9c7.2,8.5,10.1,18.4,8.6,29.4c-1.1,8.3-4.6,15.4-10.5,21.3c-5.9,6-13,9.5-21.4,10.8
				C59.2,92.3,58.1,92.5,56.9,92.6z M23.7,55c0,17.3,14,31.3,31.3,31.3c0,0,0.1,0,0.1,0c17.3,0,31.4-14.1,31.3-31.4
				c0-17.3-14.1-31.3-31.4-31.3C37.6,23.8,23.7,37.7,23.7,55z"/>
			<path class="st1" d="M58.1,47.1c0,2.4,0,4.8,0,7.3c0,1.4-0.5,2.4-1.7,3.1c-3.9,2.4-7.7,4.8-11.6,7.2c-1.3,0.8-2.8,0.8-3.8,0
				c-1.1-0.9-1.6-2.4-1-3.6c0.4-0.7,0.9-1.3,1.6-1.7c3.2-2.1,6.4-4.1,9.6-6.1c0.5-0.3,0.6-0.6,0.6-1.1c0-4.1,0-8.3,0-12.4
				c0-0.8,0.1-1.6,0.6-2.3c0.8-1.1,2.1-1.5,3.5-1.1c1.2,0.4,2,1.5,2.1,2.7C58.1,41.8,58.1,44.4,58.1,47.1L58.1,47.1z"/>
		</g>
	</g>
</g>
</svg>
