<?xml version="1.0" encoding="utf-8"?>
<!-- Generator: Adobe Illustrator 25.0.0, SVG Export Plug-In . SVG Version: 6.00 Build 0)  -->
<svg version="1.1" id="Layer_1" xmlns="http://www.w3.org/2000/svg" xmlns:xlink="http://www.w3.org/1999/xlink" x="0px" y="0px"
	 viewBox="0 0 110 110" style="enable-background:new 0 0 110 110;" xml:space="preserve">
<style type="text/css">
	.st0{fill:#D41268;}
	.st1{fill:#FFFFFF;}
</style>
<path class="st0" d="M88.9,110H21.1C9.5,110,0,100.5,0,88.9V21.1C0,9.5,9.5,0,21.1,0h67.8C100.5,0,110,9.5,110,21.1v67.8
	C110,100.5,100.5,110,88.9,110z"/>
<g id="Layer_2_2_">
	<g id="Layer_1-2_1_">
		<g id="LlRnl4.tif">
			<path class="st1" d="M52.2,17.4h1.2c0.2,0.1,0.4,0.2,0.7,0.3c7.4,2.1,14.8,4.2,22.2,6.3c2.6,0.7,5.2,1.5,7.8,2.2
				c1.1,0.3,1.8,1.1,1.8,2.2c0,0.9,0,1.8,0,2.7c0,7.1,0,14.1,0,21.2c0,0.5,0.2,0.8,0.7,1c1.8,0.8,3.2,2.2,3.4,4.2
				c0.3,2.1,0.3,4.3,0.2,6.5c0,1-1,1.8-2.1,1.8c-3,0-6,0-9,0c-1.2,0-2.1-1-2.1-2.1c0-1.6-0.1-3.3,0-4.9c0.2-2.5,1.5-4.4,3.7-5.5
				c0.5-0.2,0.7-0.5,0.7-1c0-6.7,0-13.5,0-20.2v-0.8l-8.8,2.5c0,1.3,0,2.6,0,3.9c0,2.8,0.1,5.6-0.2,8.4c-0.5,6.2-3.2,11.4-8,15.4
				c-0.8,0.7-1.8,1.3-2.7,2c0.3,0.5,0.6,1,0.7,1.5c0.2,0.7,0.7,0.9,1.4,1c5,0.5,9.5,2.4,13.2,5.7c4.8,4.2,7.6,9.5,8.4,15.8
				c0.1,0.8,0.1,1.5,0.2,2.3c0.1,1.9-0.7,2.8-2.7,2.8c-20.1,0-40.3,0-60.4,0c-1.4,0-2.4-0.4-3-1.6v-2.2c0-0.1,0.1-0.3,0.1-0.4
				c0.2-3.1,1.1-6.2,2.5-9c2.3-4.6,5.8-8.1,10.3-10.6c2.9-1.6,6-2.5,9.3-2.8c0.3,0,0.7-0.2,0.8-0.4c0.4-0.7,0.7-1.4,1.1-2.1
				c-0.2-0.2-0.5-0.3-0.6-0.4c-1.3-1.1-2.8-2-3.9-3.3c-4.3-4.5-6.2-9.9-6.2-16.1c0-3.1,0-6.2,0-9.2c0-0.5-0.1-0.7-0.6-0.8
				c-3.5-1-6.9-2-10.4-2.9c-1.1-0.3-1.9-0.8-2.2-1.9V28c0.4-1,1.1-1.6,2.2-1.9c8.3-2.4,16.6-4.7,24.9-7.1
				C48.7,18.5,50.4,17.9,52.2,17.4z M24.3,88.1h26.3c0-1.9,0-3.7,0-5.6c0-0.4-0.1-0.8-0.3-1.1c-2.2-3.3-4.4-6.5-6.5-9.8
				c-0.7-1.2-1.5-1.4-2.7-1.1c-5.3,0.9-9.6,3.5-12.8,7.8C26,81.2,24.7,84.4,24.3,88.1z M81.3,88.1c-0.1-0.6-0.1-1.1-0.2-1.6
				c-1.7-8.8-8.8-15.2-17.7-16.2c-0.5-0.1-0.7,0.1-1,0.5c-2.3,3.5-4.7,7.1-7.1,10.6c-0.2,0.3-0.3,0.6-0.3,1c0,1.7,0,3.4,0,5.1
				c0,0.2,0,0.4,0,0.6L81.3,88.1z M75.3,28.5l0-0.2c-0.1,0-0.2-0.1-0.3-0.1c-7.3-2.1-14.5-4.1-21.8-6.2c-0.4-0.1-0.7-0.1-1.1,0
				C45.4,24,38.6,26,31.8,27.9c-0.5,0.1-1,0.3-1.7,0.5c0.3,0.1,0.4,0.1,0.5,0.2c7.2,2.1,14.5,4.1,21.8,6.2c0.3,0.1,0.7,0.1,1,0
				c5.6-1.6,11.2-3.2,16.8-4.8C71.9,29.5,73.6,29,75.3,28.5z M37.7,47.3c0,0.2,0.1,0.3,0.1,0.4c0.8,4.2,2.8,7.8,6.1,10.5
				c4.1,3.3,8.7,4.2,13.6,2.4c4.5-1.6,7.4-4.9,9.2-9.3c0.5-1.2,0.8-2.6,1.3-4C57.8,51.5,47.8,51.5,37.7,47.3z M37.4,35.1
				c0,1.9,0,3.7,0,5.5c0,1.1,0.5,1.9,1.5,2.3c3.6,1.7,7.5,2.7,11.4,2.9c5.7,0.4,11.4-0.6,16.6-3.1c0.8-0.4,1.2-1.1,1.3-2
				c0-1.7,0-3.5,0-5.2c0-0.2,0-0.3-0.1-0.5c-0.2,0-0.3,0.1-0.5,0.1c-4.6,1.3-9.2,2.6-13.9,3.9c-0.7,0.2-1.3,0.2-2,0
				c-1.8-0.4-3.5-1-5.2-1.5L37.4,35.1z M52.8,77.3c0.2-0.3,0.4-0.5,0.5-0.7c1.5-2.3,2.9-4.6,4.6-6.7c1.1-1.4,1.2-2.6,0.2-4.1
				c-0.3-0.5-0.6-0.6-1.1-0.4c-2.2,0.5-4.6,0.7-6.8,0.3c-0.8-0.1-1.7-0.5-2.3-0.2c-0.6,0.3-0.8,1.3-1.1,2.1c-0.1,0.2-0.1,0.5,0,0.7
				C48.7,71.2,50.7,74.2,52.8,77.3z M81.5,61.4h4.4c0-0.8,0-1.6,0-2.3c-0.1-1.2-1.1-2.1-2.3-2c-1.1,0.1-2,0.9-2,2
				C81.4,59.8,81.5,60.6,81.5,61.4z"/>
			<path class="st1" d="M68.2,83.5c-0.7,0-1.4,0-2.1,0c-1.3,0-2.3-1-2.2-2.2c0-1.2,1-2.1,2.2-2.2c1.4,0,2.9,0,4.3,0
				c1.3,0,2.3,1,2.2,2.2c0,1.2-1,2.1-2.2,2.2C69.7,83.5,68.9,83.5,68.2,83.5z"/>
		</g>
	</g>
</g>
</svg>
