<?xml version="1.0" encoding="utf-8"?>
<!-- Generator: Adobe Illustrator 25.0.0, SVG Export Plug-In . SVG Version: 6.00 Build 0)  -->
<svg version="1.1" id="Layer_1" xmlns="http://www.w3.org/2000/svg" xmlns:xlink="http://www.w3.org/1999/xlink" x="0px" y="0px"
	 viewBox="0 0 512 512" style="enable-background:new 0 0 512 512;" xml:space="preserve">
<style type="text/css">
	.st0{fill:url(#SVGID_1_);}
	.st1{fill:url(#SVGID_2_);}
	.st2{fill:url(#SVGID_3_);}
</style>
<g id="Layer_2_1_">
	<g id="Layer_1-2">
		<g id="PZ1fcN.tif">
			
				<linearGradient id="SVGID_1_" gradientUnits="userSpaceOnUse" x1="47.1183" y1="433.6637" x2="464.6924" y2="16.0895" gradientTransform="matrix(1 0 0 -1 0 514.54)">
				<stop  offset="0" style="stop-color:#282C76"/>
				<stop  offset="1" style="stop-color:#E83F6C"/>
			</linearGradient>
			<path class="st0" d="M511.5,418.6v24c-1.9,4.6-3.2,9.5-5.8,13.6c-7.2,11.1-17.9,15.6-31,15.6c-145.7-0.1-291.5-0.1-437.2-0.1
				c-1.2,0-2.3,0-3.5,0c-16.6-0.5-30-11.6-32.8-28.1C0.1,437,0.6,430,0.5,423.2c-0.1-7.2,2.7-9.9,9.9-10c5.4-0.1,10.9,0,16.9,0v-7
				c0-96.1,0-192.3,0-288.4c0-22.6,14-36.7,36.7-36.8c11.6-0.1,23.3,0,34.9,0h7.2c0-10,0-19.3,0-28.6c0-10.3,1.8-12.1,12.2-12.1
				c65.4,0,130.8,0,196.2,0.1c3.1,0.2,6,1.4,8.2,3.5c11.5,11.1,22.5,22.6,34,33.7c2.2,2,5.1,3.2,8.2,3.4c27.3,0.2,54.6,0.1,81.9,0.2
				c3.8-0.1,7.6,0.2,11.4,0.9c16.6,3.8,26.6,17.3,26.6,35.5c0,96.3,0,192.6,0,288.9v6.8c5.8,0,10.9,0.2,16-0.1
				C505.5,412.9,509.2,414.4,511.5,418.6z M122.4,56.4v356.3c1.6,0.1,2.9,0.2,4.2,0.2c36.3,0,72.5,0,108.8,0c7.3,0,9.7,2.1,10.7,9.3
				c0.6,5.5,5.6,9.4,11.1,8.8c4.7-0.5,8.3-4.2,8.8-8.9c0.9-6.9,3.5-9.3,10.2-9.3h108.3h5.2V138.2h-5.6c-21.8,0-43.6,0-65.4,0
				c-8.5,0-10.9-2.4-10.9-11c0-21.8,0-43.6,0-65.4v-5.5H122.4z M405.9,412.5h62.9v-40.7c0-84.7,0-169.3,0-254
				c0-13.9-6.9-20.9-20.8-20.9c-22,0-43.9,0-65.9,0c-1.6,0-3.2,0.2-6.1,0.3c8.1,8.1,15.1,15.6,22.8,22.3c5.4,4.8,7.3,10,7.3,17.3
				c-0.3,90-0.2,180-0.2,269.9L405.9,412.5z M43.2,412.5h62.5V97.4c-0.6-0.2-1.2-0.3-1.8-0.4c-12.8,0-25.6,0-38.4-0.1
				c-15.7,0-22.2,6.5-22.2,22c0,95.9,0,191.9,0,287.8L43.2,412.5z M496,429.5h-22.9c-62.2,0-124.4,0-186.6-0.1c-3.8,0-6,0.7-8.1,4.5
				c-9.6,17.5-34.8,17.7-44.6,0.3c-2.1-3.7-4.2-4.8-8.4-4.8c-62.2,0.1-124.4,0.2-186.6,0.1H16.7c0,3.9-0.5,7.5,0.1,11.1
				c1.5,9.5,9,15.2,19.8,15.2c146.4,0,292.7,0,439.1,0c0.8,0,1.7,0,2.5-0.1c7.7-0.4,14.3-5.1,16.3-12.4
				C495.6,439,495.5,434.5,496,429.5z M324.2,69.2V122H377L324.2,69.2z"/>
			
				<linearGradient id="SVGID_2_" gradientUnits="userSpaceOnUse" x1="186.5212" y1="334.1215" x2="325.5977" y2="195.035" gradientTransform="matrix(1 0 0 -1 0 514.54)">
				<stop  offset="0" style="stop-color:#282C76"/>
				<stop  offset="1" style="stop-color:#E83F6C"/>
			</linearGradient>
			<path class="st1" d="M263.1,291.6c-4.7,3.2-9.4,3.6-14.1-0.1l-26,35.1c-1.1,1.5-2.1,3-3.3,4.4c-4.2,4.6-10.2,4.2-13.4-1.2
				c-2.6-4.4-4.7-9.2-7.4-13.6c-1.1-1.7-2.8-2.9-4.8-3.5c-4.5-1.2-9.1-1.9-13.7-2.8c-8.2-1.6-10.5-7.5-5.6-14.2
				c7.9-10.9,15.9-21.8,24.1-32.4c2.6-3.3,2.2-5.3-1-7.7c-3.9-2.9-7.3-6.3-11.1-9.2s-4.7-6.6-3.5-11c0-0.2,0.1-0.3,0.1-0.5
				c4.3-10.9,4.3-23,0-33.9c-1.8-4.8-0.6-8.8,3.8-11.8c0.1-0.1,0.2-0.2,0.4-0.3c10-6.5,16.4-15.6,19.6-27.1
				c1.5-5.4,5.4-7.5,10.9-7.6c4.8,0,9.8,0,14.4-1.1c3.7-0.9,7.2-3.1,10.6-5.2c14-8.5,11.4-9.4,25.4,0.1c7.7,5.3,16,5.9,24.6,6.1
				c6.1,0.2,10.2,2.4,11.8,8.5c2.9,11.3,9.7,19.8,19.2,26.2c4.6,3.1,6,7.3,4.1,12.6c-0.1,0.3-0.2,0.6-0.3,1
				c-4.1,10.5-3.8,21,0.1,31.5c2.2,5.9,0.5,10.2-4.5,13.8c-3.2,2.3-6,5.3-9.2,7.6c-3.5,2.5-4.1,4.7-1.2,8.4
				c8,10.2,15.5,20.8,23.2,31.2c5.8,7.9,3.8,14.3-5.9,15.1c-12.4,1-19.6,6.6-24,18.1c-3.2,8.3-10.3,8.4-15.7,1.1
				C281.7,316.7,272.5,304.3,263.1,291.6z M312.1,200.5c-0.9-1-1.8-2.7-3.3-3.7c-7.8-5.5-13.7-12.4-16.1-21.9
				c-0.9-3.8-3.2-5.5-7.1-5.3c-10,0.7-18.5-2.8-26.3-8.7c-0.4-0.3-0.8-0.7-1.3-0.8c-1.5-0.1-3.5-0.6-4.4,0.1
				c-8.7,6.8-18.6,9.8-29.6,9.8c-1.4,0-3.6,1.8-4.1,3.2c-3.2,10-8.6,18.2-17.5,23.9c-2.5,1.6-3,3.6-2,6.4c3.6,9.2,3.7,19.4,0.1,28.6
				c-0.1,0.3-0.4,0.7-0.3,0.9c0.5,1.7,0.5,4.2,1.7,5c8.7,5.9,15.1,14.7,18,24.8c0.8,1.6,2.3,2.8,4.1,3c10.5-0.4,20.9,3,29.2,9.5
				c1.6,0.8,3.5,0.8,5.1,0c8.5-6.4,18-9.7,28.7-9.2c2.9,0.1,4.2-1.2,4.9-3.7c2.5-9.7,8.6-18.2,17.1-23.6c2.4-1.6,3.2-3.5,2.1-6.3
				c-3.7-9.3-3.7-19.7-0.1-29.1C311.6,202.7,311.7,202.1,312.1,200.5L312.1,200.5z M276.9,283.4l21.2,28.7
				c2.1-11.3,9.3-15.2,19.9-15.4l-14.1-19.1C295.7,284.3,285.9,280.4,276.9,283.4L276.9,283.4z M235.1,283.4
				c-9-3.1-18.9,0.9-26.9-5.9l-14.4,19.7c11.9-1.1,17.3,4.9,20.6,14.3L235.1,283.4z"/>
			
				<linearGradient id="SVGID_3_" gradientUnits="userSpaceOnUse" x1="216.5168" y1="185.5279" x2="295.4781" y2="106.5666" gradientTransform="matrix(1 0 0 -1 0 514.54)">
				<stop  offset="0" style="stop-color:#282C76"/>
				<stop  offset="1" style="stop-color:#E83F6C"/>
			</linearGradient>
			<path class="st2" d="M255.9,360.6c22.1,0,44.2,0,66.3,0c4.8,0,8.1,1.7,9.3,6.5c1,3.9-1.7,8-5.9,9c-1.8,0.3-3.6,0.5-5.4,0.4
				c-42.7,0-85.5,0-128.2,0c-1,0-2,0-3,0c-5.3-0.3-8.9-3.8-8.7-8.3s3.6-7.5,8.8-7.5C211.4,360.6,233.7,360.6,255.9,360.6z"/>
		</g>
	</g>
</g>
</svg>
