<?xml version="1.0" encoding="utf-8"?>
<!-- Generator: Adobe Illustrator 25.0.0, SVG Export Plug-In . SVG Version: 6.00 Build 0)  -->
<svg version="1.1" id="Layer_1" xmlns="http://www.w3.org/2000/svg" xmlns:xlink="http://www.w3.org/1999/xlink" x="0px" y="0px"
	 viewBox="0 0 512 512" style="enable-background:new 0 0 512 512;" xml:space="preserve">
<style type="text/css">
	.st0{fill:url(#SVGID_1_);}
	.st1{fill:url(#SVGID_2_);}
</style>
<g id="Layer_2_1_">
	<g id="Layer_1-2">
		<g id="nCMQ10.tif">
			
				<linearGradient id="SVGID_1_" gradientUnits="userSpaceOnUse" x1="16.1969" y1="490.4828" x2="495.5431" y2="11.1266" gradientTransform="matrix(1 0 0 -1 0 514.54)">
				<stop  offset="0" style="stop-color:#282C76"/>
				<stop  offset="1" style="stop-color:#E83F6C"/>
			</linearGradient>
			<path class="st0" d="M511.5,487.5c-1.8,1.6-3.4,3.8-5.5,4.7c-5.4,2.2-10.5-1.9-10.6-8.2c-0.1-10.5-0.2-21,0-31.4
				c0.3-21.1-10.2-35.4-28.8-43.6c-7.4-3.4-15.4-5.3-23.5-5.8c-18.9-0.6-38-0.9-56.8,0.8c-19,1.7-34.6,10.7-42.8,29
				c-2.2,5.2-3.3,10.7-3.5,16.3c-0.5,11.1-0.1,22.3-0.2,33.4c0,6.4-2.9,9.8-8.1,9.9s-8-3.4-8-9.8c0-12.1-0.9-24.4,0.3-36.4
				c0.9-8.4,3.3-16.5,7-24.1c3-6.1,3.8-13.1,2.2-19.7c-4.6-20.4-18.2-32.5-37.9-36.6c-25.9-5.5-52.8-5.5-78.7,0
				c-19.3,4.2-33,16.1-37.6,36.3c-1.5,6.8-1.6,13.5,2.4,20.1c5,8.2,7.4,17.6,7.1,27.1c-0.3,11,0,22-0.1,32.9c0,6.5-2.7,9.9-7.8,10
				c-5.3,0.1-8.3-3.4-8.4-10c0-10-0.2-20,0-29.9c0.4-21.4-10.3-35.6-29.1-43.8c-7.3-3.3-15.1-5.2-23.1-5.6
				c-18.9-0.6-38-1.1-56.7,0.8c-21.3,2.2-38,12.7-45,34.5c-1.1,3.5-1.6,7.1-1.6,10.8c-0.2,11-0.1,22-0.1,32.9
				c0,6.9-2.7,10.4-7.9,10.4c-5.4,0.1-8.2-3.5-8.2-10.7c0-10,0.1-20,0-29.9c-0.2-25.1,11.6-43.1,32.9-55.2c6.5-3.7,14.2-5.5,21.3-8
				c1.3-0.4,2.5-0.8,3.8-1l-10.3-25c-6.7,0-14.3,0-22,0c-7.1,0-9.9-2.8-9.9-10c0-107.8,0-215.5,0-323.3c0.1-7.6,2.6-10.3,10.2-10.3
				h458.5c7.9,0,10.4,2.6,10.4,10.5c0,107.4,0,214.8,0,322.3c0,8.2-2.5,10.8-10.7,10.8c-6.5,0-13-0.1-19.5,0.1
				c-1.6,0.3-2.9,1.3-3.6,2.8c-2.8,7.2-5.3,14.4-8,22.1c0.7,0.2,2.7,0.6,4.7,1.1c27,6.8,45.5,22.5,52.2,50.4
				c0.2,0.4,0.5,0.9,0.8,1.2L511.5,487.5z M479.3,35.8H32.9v310.6h16.7c0-5.9,0.1-11.5,0-17.1c-0.7-31.6,28.1-53.1,60.7-42.8
				c17.2,5.5,28.6,21.5,28.9,39.6c0.1,6.7,0,13.5,0,20.1h80.8c-5.6-8-8.7-16.3-8.8-25.5c-0.1-11.3-0.1-22.6,0-33.9
				c0.1-3.5,0.6-7,1.5-10.3c5.5-20.6,23-32.6,46.5-31.7c20.8,0.8,38.3,15,40.6,35.6c1.7,15.2,1,30.9,0.1,46.2
				c-0.3,5.6-3.9,11.1-6,16.6c-0.4,1-1,2-1.6,3.1h80.4c0-6.9-0.8-13.7,0.2-20.1c1.1-7.1,2.5-14.6,5.9-20.8
				c9.5-17.5,30.4-25.2,50.9-20c19.3,4.9,32.1,21.1,32.6,41.5c0.2,6.4,0,12.9,0,19.4h16.9L479.3,35.8z M227.3,303.8
				c0,5.3-0.1,10.6,0,16c0.5,15.7,11.6,26.5,27.5,27c16.7,0.5,28.9-9.6,29.7-25.6c0.6-11.6,0.6-23.3,0-34.9
				c-0.9-16.3-12.9-25.8-30.8-25.4c-14.9,0.4-26,11.6-26.4,27C227.2,293.2,227.3,298.5,227.3,303.8L227.3,303.8z M123.2,343.3
				c0-5.3,0.1-10.6,0-16c0-6.9-2.6-13.5-7.4-18.5c-7.7-8.1-21.8-11.1-32.9-6.5s-16.8,13.2-17,25.2c-0.1,9.8,0.4,19.6,0,29.4
				c-0.7,16.9,10.3,28.9,27.9,29.6c16.6,0.7,29.2-11.2,29.3-27.7C123.2,353.5,123.2,348.4,123.2,343.3z M446.1,343.8L446.1,343.8
				c-0.1-6,0.2-12-0.1-18c-1-15.9-12.6-25.8-29.7-25.4c-15.6,0.3-27,11.2-27.4,26.4c-0.2,11-0.2,21.9,0,32.9
				c0.3,15.6,12.7,26.9,28.9,26.6c16.5-0.3,28.1-11.4,28.3-27.2C446.1,354.1,446.1,348.9,446.1,343.8L446.1,343.8z M162.2,399.1
				c2.8-6.2,5.1-13.1,8.9-19.3s8.8-11.2,13.2-16.8h-43.6c-3.6,8.6-6.9,16.6-9.9,23.9L162.2,399.1z M326.5,363
				c12.5,10.4,19.7,22.6,22.8,36.3l32.1-12.4l-10-23.9H326.5z"/>
			
				<linearGradient id="SVGID_2_" gradientUnits="userSpaceOnUse" x1="210.0397" y1="395.7601" x2="284.4088" y2="321.3909" gradientTransform="matrix(1 0 0 -1 0 514.54)">
				<stop  offset="0" style="stop-color:#282C76"/>
				<stop  offset="1" style="stop-color:#E83F6C"/>
			</linearGradient>
			<path class="st1" d="M226.8,155.7c0-16,0-31.9,0-47.9c0-3.8,0.4-7.4,4.1-9.5c4-2.2,7.2-0.6,10.6,1.7
				c23.7,15.9,47.5,31.8,71.2,47.7c8,5.3,7.9,11.2-0.1,16.6c-23.7,15.9-47.5,31.9-71.2,47.7c-3.4,2.3-6.7,3.8-10.6,1.5
				c-3.7-2.1-4-5.7-4-9.5C226.8,187.9,226.8,171.8,226.8,155.7z M296,156l-52.6-35.2v70.4L296,156z"/>
		</g>
	</g>
</g>
</svg>
