<?xml version="1.0" encoding="utf-8"?>
<!-- Generator: Adobe Illustrator 25.0.0, SVG Export Plug-In . SVG Version: 6.00 Build 0)  -->
<svg version="1.1" id="Layer_1" xmlns="http://www.w3.org/2000/svg" xmlns:xlink="http://www.w3.org/1999/xlink" x="0px" y="0px"
	 viewBox="0 0 512 512" style="enable-background:new 0 0 512 512;" xml:space="preserve">
<style type="text/css">
	.st0{fill:url(#SVGID_1_);}
	.st1{fill:url(#SVGID_2_);}
	.st2{fill:url(#SVGID_3_);}
	.st3{fill:url(#SVGID_4_);}
</style>
<g id="Layer_2_1_">
	<g id="Layer_1-2">
		<g id="TVBtXk.tif">
			
				<linearGradient id="SVGID_1_" gradientUnits="userSpaceOnUse" x1="49.5786" y1="372.7602" x2="459.4679" y2="-37.1191" gradientTransform="matrix(1 0 0 -1 0 514.54)">
				<stop  offset="0" style="stop-color:#282C76"/>
				<stop  offset="1" style="stop-color:#E83F6C"/>
			</linearGradient>
			<path class="st0" d="M6.5,469.7c3.5-11.7,6.1-23.8,10.7-35.1c15.9-39.6,44-68,82.2-86.4c3.6-1.7,5.1-3.6,5-7.7
				c-0.3-10.3-0.2-20.6-0.1-30.9c0.1-15.5,10.9-26.3,26.4-26.4c8-0.1,15.9,0,23.6,0l-10-33.2c-13.7,7.4-29.1,5.1-44.1,4.4
				c-17.6-0.9-31.5-16-31.9-33.7c-0.3-14.8-0.2-29.6-0.1-44.4c0.2-19.9,13.4-34.2,33.2-36.2l3.8-0.4c2.4-12.2,3.9-24.3,7.2-35.9
				c15.6-55.3,66.1-97,123.4-102.2c31.8-2.9,62.9-0.4,91.6,15.2c45.7,24.8,71.7,63,77.5,114.8c0.3,2.6,0.6,5.2,0.9,8
				c2.9,0.3,5.5,0.6,8.1,0.9c15.8,2.2,29.2,16.3,29.6,32.3c0.4,16.5,0.4,32.9,0,49.4c-0.4,15.7-13.6,30.4-29.3,31.9
				c-11.4,1.1-22.9,0.6-34.4,0c-4.3-0.2-8.5-2.6-12.5-3.8l-9.8,33c7.4,0,15.1,0,22.9,0c16.5,0.1,27.1,10.8,27.2,27.2
				c0,10.3,0.2,20.6-0.1,30.9c-0.1,3.6,1.2,5.2,4.3,6.7c43.6,20.9,73,54.4,88.1,100.5c6,18.2,5.8,36.6,5.1,55.2
				c-0.1,2.8-3.7,5.4-5.6,8.1h-5c-4.8-2.6-6.2-6.6-6.1-12c0.2-9.8,1.1-19.9-0.7-29.4c-8.9-46.1-34.3-80.7-75.6-103.4
				c-1.2-0.7-2.6-1.2-4.4-2v6c0,43.1-0.1,86.2,0.1,129.2c0,5.2-1.5,9-6.1,11.5H110.3c-4.6-2.4-6.1-6.2-6.1-11.5
				c0.2-43.2,0.1-86.5,0.1-129.7v-5.8c-27.2,13.9-48.1,33-62.9,58.6c-13.7,23.7-20.2,49-17.9,76.4c0.5,5.4-1.2,9.4-6.1,12h-11V469.7
				z M390.7,494.4V311.8c0-9.1-2.7-11.8-12-11.8H133.3c-9.3,0-12,2.7-12,11.8c0,59.2,0,118.4,0,177.6c0,1.6,0.2,3.2,0.2,5
				L390.7,494.4z M255.9,283c25.6,0,51.2-0.1,76.8,0.1c3.2,0,5.1-0.9,6.6-3.8c5.8-11,9.9-22.5,10.6-35c0.5-9.4,0.2-18.9,0.2-28.4
				c0.1-23.4,0.7-46.9,0.3-70.3c-0.6-36.4-17.3-63.4-49.5-80.6c-16.9-9-35.3-10.1-53.9-9.2c-26.5,1.3-48.4,12.1-65.4,32.5
				c-13.7,16.5-20.2,35.7-20.3,57.1c-0.1,29.8-0.1,59.5,0,89.3c-0.1,15.4,3.6,30.5,10.9,44.1c1.7,3.2,3.6,4.5,7.3,4.4
				C205,282.9,230.4,283,255.9,283z M144.2,143.6C143.9,143.8,144.1,143.7,144.2,143.6c0.1-1.1,0.2-2.3,0.3-3.5
				c2.8-38.9,20.8-68.4,54.4-88.1c19.6-11.5,41.1-13.9,63.5-13.5c49.3,0.7,92,35,102.5,83.2c1.6,7.3,2.2,14.9,3.2,21.8l20.2-4.8
				c0.1-0.3,0.2-0.6,0.2-0.9c-3.6-45.3-24.8-79.9-63.8-103.3c-23.3-14-49-17.5-75.7-17c-57.1,1.2-107.1,39.9-121.4,95
				c-2.2,8.7-3.1,17.8-4.5,26.1L144.2,143.6z M144.2,197.4c0-7.5,0-14.9,0-22.4c-0.1-9.3-6.4-17.1-15.4-17.8
				c-9.3-0.7-18.6-0.7-27.8,0c-8.7,0.8-15.4,8-15.6,16.7c-0.3,15.4-0.3,30.9,0,46.4c0.2,8.9,7.1,16.2,16,16.9c9,0.5,17.9,0.5,26.9,0
				c9-0.5,15.9-8.3,16-17.3C144.3,212.4,144.2,204.9,144.2,197.4L144.2,197.4z M426.7,197.4c0-7.5,0.1-15,0-22.4
				c-0.2-9.5-6.8-17.1-16.2-17.8c-8.9-0.6-17.9-0.6-26.9,0c-9.4,0.6-15.9,8.4-15.9,17.8c-0.1,14.6-0.1,29.3,0,43.9
				c0,10.7,7.3,18.2,18,18.5c7.6,0.2,15.3,0.2,22.9,0c10.6-0.3,17.9-7.9,18.1-18.6C426.8,211.6,426.8,204.5,426.7,197.4z"/>
			
				<linearGradient id="SVGID_2_" gradientUnits="userSpaceOnUse" x1="226.8285" y1="161.9725" x2="285.0985" y2="103.7025" gradientTransform="matrix(1 0 0 -1 0 514.54)">
				<stop  offset="0" style="stop-color:#282C76"/>
				<stop  offset="1" style="stop-color:#E83F6C"/>
			</linearGradient>
			<path class="st1" d="M214.9,381.7c0-22.7,18.4-41.1,41.1-41.1s41.1,18.4,41.1,41.1c0,22.7-18.4,41.1-41.1,41.1
				c-22.6,0.1-41.1-18.2-41.1-40.8C214.9,381.9,214.9,381.8,214.9,381.7z M256.1,357.6c-13.3-0.1-24.2,10.7-24.2,24
				c-0.1,13.3,10.7,24.2,24,24.2s24.2-10.7,24.2-24c0-0.1,0-0.1,0-0.2c0.1-13.2-10.5-24-23.7-24.1
				C256.3,357.6,256.2,357.6,256.1,357.6z"/>
			
				<linearGradient id="SVGID_3_" gradientUnits="userSpaceOnUse" x1="203.7713" y1="347.3557" x2="232.9602" y2="318.1569" gradientTransform="matrix(1 0 0 -1 0 514.54)">
				<stop  offset="0" style="stop-color:#282C76"/>
				<stop  offset="1" style="stop-color:#E83F6C"/>
			</linearGradient>
			<path class="st2" d="M218.2,165.2c9.3,0.2,17.2,3.6,23.3,10.6c3.5,4,3.4,8.7,0,12.1s-8.2,3.2-12.1-0.2c-8.5-7.4-13.6-7.4-22.1,0
				c-3.9,3.4-8.7,3.4-12.1,0.1s-3.3-8.3,0.1-12.1C201.4,168.9,209.1,165.6,218.2,165.2z"/>
			
				<linearGradient id="SVGID_4_" gradientUnits="userSpaceOnUse" x1="279.0677" y1="347.3623" x2="308.2559" y2="318.1742" gradientTransform="matrix(1 0 0 -1 0 514.54)">
				<stop  offset="0" style="stop-color:#282C76"/>
				<stop  offset="1" style="stop-color:#E83F6C"/>
			</linearGradient>
			<path class="st3" d="M295.2,165.3c8.2,0.3,16,4,21.4,10.2c3.6,4,3.6,9.2,0.1,12.5s-8.1,3.1-12-0.4c-8-7.1-13.7-7.1-21.7,0
				c-3.9,3.5-8.7,3.7-12.1,0.5c-3.6-3.4-3.6-8.2,0-12.4C276.2,169.2,284.9,165.3,295.2,165.3z"/>
		</g>
	</g>
</g>
</svg>
