<?xml version="1.0" encoding="utf-8"?>
<!-- Generator: Adobe Illustrator 25.0.0, SVG Export Plug-In . SVG Version: 6.00 Build 0)  -->
<svg version="1.1" id="Layer_1" xmlns="http://www.w3.org/2000/svg" xmlns:xlink="http://www.w3.org/1999/xlink" x="0px" y="0px"
	 viewBox="0 0 400 400" style="enable-background:new 0 0 400 400;" xml:space="preserve">
<style type="text/css">
	.st0{fill:#6C75F6;}
</style>
<g id="Layer_2_1_">
	<g id="Layer_1-2">
		<g id="X1RWIm.tif">
			<path class="st0" d="M0.5,29.7C3.4,22.3,7.7,16.3,16,14.5c1.8-0.4,3.5-0.6,5.3-0.6c49.8,0,99.7,0,149.5,0c1.1,0,2.2,0.1,2.8,0.2
				v26.4h-137c-7.7,0-9.6,1.9-9.6,9.5c0,60.1,0,120.1,0,180.2c0,7.7,1.9,9.6,9.5,9.6h300.3c7.3,0,9.3-2,9.3-9.4
				c0-21.7,0-43.5,0-65.2v-4.8h26.4c0.1,1.3,0.2,2.7,0.2,4c0,26.7,0,53.4,0,80.1c0,13.7-8.2,21.9-22,21.9
				c-109.4,0-218.7,0-328.1,0.1c-11.4,0-18.2-5.7-22.1-15.8L0.5,29.7z"/>
			<path class="st0" d="M0.5,374.4c2-9.5,5.8-18.1,13.3-24.7c7.3-6.5,15.9-10,25.7-10.2c13.8-0.2,27.7-0.2,41.5,0
				c21.4,0.3,38.7,17.6,39.1,38.9c0.1,3.9-0.2,7.8,0.1,11.7c0.2,3.9-0.9,7-4.2,9.2H0.5V374.4z"/>
			<path class="st0" d="M144.3,399.3c-3.4-2.3-4.6-5.6-4.2-9.6c0.6-7,0.1-14.2,1.7-21c4.1-17,19.9-29,37.4-29.2
				c13.8-0.2,27.7-0.2,41.5,0c21.3,0.3,38.6,17.6,39,38.9c0.1,3.7-0.2,7.5,0.1,11.2c0.3,4.1-0.8,7.3-4.2,9.6H144.3z"/>
			<path class="st0" d="M283.9,399.3c-3.3-2.4-4.5-5.6-4.2-9.6c0.5-6.5-0.1-13.1,1.3-19.4c3.8-17.9,19.9-30.6,38.3-30.8
				c13.6-0.1,27.1-0.1,40.7,0c21.7,0.2,39.2,17.7,39.4,39.4c0.1,3.7-0.2,7.5,0.1,11.2c0.3,3.9-0.9,7-4.2,9.2L283.9,399.3z"/>
			<path class="st0" d="M213.2,147.2c-4.2-0.4-7.9-0.3-11.4-1.1c-8.7-1.9-15-9.6-15.1-18.5c-0.1-35.9-0.1-71.7,0-107.5
				c0-11.1,9.1-19.4,20.7-19.4c33.9-0.1,67.8-0.1,101.8,0c22.6,0,45.1,0,67.7,0c14.4,0,22.5,8,22.5,22.2c0,33.9,0,67.8,0,101.7
				c0,14.1-8.1,22.2-22.1,22.2c-34.7,0-69.5,0-104.3-0.1c-2.7-0.1-5.4,0.9-7.4,2.8c-13.3,11.5-26.6,22.9-40,34.4
				c-2.4,2.1-4.9,3.7-8.3,2.2c-3.3-1.4-4.2-4.4-4.2-7.8C213.3,167.9,213.2,157.6,213.2,147.2z M259.8,73.8c0,10.6,0,21.3,0,31.9
				c0,7,5.2,9.9,11.2,6.2c16.9-10.5,33.8-21,50.6-31.6c6.3-4,6.2-9.2-0.1-13.2c-16.7-10.5-33.5-21-50.2-31.4
				c-2.6-1.7-5.2-2.5-8.2-0.8c-2.9,1.7-3.4,4.4-3.3,7.5C259.8,52.8,259.8,63.3,259.8,73.8z"/>
			<path class="st0" d="M53.7,226.2c0.4-12.3,5.1-22.2,14.1-30s20-10.3,32.4-9.3c0-5.6,0-11,0-16.3c-0.1-0.8-0.6-1.5-1.2-2.1
				c-8.9-8.8-12.5-19.7-12-32c0-0.8,0-1.7,0-2.7c-5.6-1-6.9-4.7-6.7-9.7c0.4-8-0.3-16.1,0.9-24c2.8-18.8,19.1-32.6,38.2-32.9
				c7-0.1,14.2-0.3,21.1,0.8c18.5,2.8,32.4,19.1,32.9,37.8c0.2,6.1,0,12.2,0,18.3c0,6.5-0.7,7.6-6.3,9.9c-0.3,4.3-0.5,8.6-1,12.8
				c-1.1,8.1-4.9,14.8-10.3,20.9c-1.3,1.5-2,3.4-2.2,5.4c-0.3,4.4-0.1,8.8-0.1,13.8c15.2-1,28.1,3.1,37.8,15
				c5.6,6.9,8.6,15.5,8.5,24.4L53.7,226.2z M100.3,133.5c0,3-0.1,5.4,0,7.8c0.8,11.1,6.1,19.2,16.4,23.4c10.3,4.2,20.1,2.4,28.5-5.2
				c8.3-7.5,9.2-17.5,8-27.5c-0.5-3.6-4.3-6.8-6.7-10.2C131.7,129.8,117,134.4,100.3,133.5L100.3,133.5z M113.2,177.6
				c1.7,7.4-3,15.6,5.3,20.3c5.3,3.3,12.1,3.1,17.3-0.3c7.8-5,3-12.8,4.7-19.8C131.2,180.6,122.6,180.8,113.2,177.6L113.2,177.6z"/>
			<path class="st0" d="M371.7,326.8h-64.1c-4.2-16.4,0.2-31.2,11.2-39.8c11.1-8.9,26.8-9.7,38.7-1.9
				C370.1,293.4,375.6,307.3,371.7,326.8z"/>
			<path class="st0" d="M231.9,326.8h-63.9c-4.2-15.1-0.4-30.5,10.7-39.4c11.3-9.4,27.5-10.2,39.7-1.9
				C230.4,293.5,236.3,308.2,231.9,326.8z"/>
			<path class="st0" d="M93.6,326.8H28.4c-6.1-25,7.1-43,26.4-46.6c19-3.5,37.7,11,38.7,30.4C93.8,316.1,93.6,321.6,93.6,326.8z"/>
		</g>
	</g>
</g>
</svg>
