<?xml version="1.0" encoding="utf-8"?>
<!-- Generator: Adobe Illustrator 25.0.0, SVG Export Plug-In . SVG Version: 6.00 Build 0)  -->
<svg version="1.1" id="Layer_1" xmlns="http://www.w3.org/2000/svg" xmlns:xlink="http://www.w3.org/1999/xlink" x="0px" y="0px"
	 viewBox="0 0 400 400" style="enable-background:new 0 0 400 400;" xml:space="preserve">
<style type="text/css">
	.st0{fill:#28A4D2;}
</style>
<g id="Layer_2_1_">
	<g id="Layer_1-2">
		<g id="vFs9n7.tif">
			<path class="st0" d="M41.6,349.2c0.3-2.1,0.4-4.4,1.1-6.4c2.1-5.9,3.7-12.2,7-17.5c31.7-51.1,63.7-102.1,95.5-153.2
				c1.3-2.2,2-4.6,2.1-7.2c0.2-14.5,0.1-29,0.1-44h-28.5V87.7h162.5v33h-28.5v4.6c0,13.2-0.1,26.4,0.1,39.6c0,2.5,0.7,5,2,7.2
				c31.7,51,63.5,101.9,95.4,152.8c10.1,16.1,10.9,32.8,1.7,49.4s-23.9,24.7-42.8,24.8c-72.9,0.1-145.8,0.1-218.6,0
				c-25.4,0-45.2-17.7-48.4-42.9c-0.1-1-0.4-2-0.7-2.9V349.2z M275.8,269.2c-1-1.7-1.6-2.9-2.3-4.1c-17.4-27.9-34.8-55.8-52.2-83.6
				c-1.2-2-1.8-4.2-1.9-6.5c-0.1-16.6-0.1-33.2-0.1-49.7V121h-38.5v4.4c0,16.4,0.1,32.9-0.1,49.3c0,2.4-0.7,4.8-2,6.8
				c-17.3,27.9-34.7,55.8-52.2,83.6c-0.7,1.2-1.4,2.3-2.3,4H275.8z"/>
			<path class="st0" d="M275.4,1c3,1.6,6.2,2.6,8.8,4.7c6.7,5.4,8.8,14.7,5.1,22.5c-3.6,7.9-11.8,12.2-20.7,10.9
				c-8-1.2-14.9-8.4-15.7-16.5c-1.1-8.7,3.8-16.9,11.9-20.1c1.2-0.5,2.4-0.9,3.6-1.4H275.4z"/>
			<path class="st0" d="M224.4,25c13.2,0.2,23.7,11.1,23.5,24.3c-0.2,13.2-11.1,23.7-24.3,23.5c-13.2-0.2-23.7-11.1-23.5-24.3
				C200.3,35.3,211.2,24.8,224.4,25z"/>
		</g>
	</g>
</g>
</svg>
