<?xml version="1.0" encoding="utf-8"?>
<!-- Generator: Adobe Illustrator 25.0.0, SVG Export Plug-In . SVG Version: 6.00 Build 0)  -->
<svg version="1.1" id="Layer_1" xmlns="http://www.w3.org/2000/svg" xmlns:xlink="http://www.w3.org/1999/xlink" x="0px" y="0px"
	 viewBox="0 0 400 400" style="enable-background:new 0 0 400 400;" xml:space="preserve">
<style type="text/css">
	.st0{fill:#F63D81;}
</style>
<g id="Layer_2_1_">
	<g id="Layer_1-2">
		<g id="lSqLCY.tif">
			<path class="st0" d="M389.4,73.1H10.6c1.1-1.7,1.7-2.9,2.4-4C25.5,50.4,37.9,31.6,50.6,13c2.2-3.3,5.7-5.8,8.7-8.7h281.2
				c2.9,2.8,6.4,5.3,8.7,8.6c12.7,18.7,25.1,37.5,37.7,56.3c0.8,1.1,1.7,2.1,2.6,3.1V73.1z"/>
			<path class="st0" d="M200,395.7c-57,0-103.3-46.2-103.3-103.2s46.2-103.2,103.2-103.2c57,0,103.2,46.2,103.2,103.2
				C303.1,349.4,256.9,395.6,200,395.7z M200.1,235.2c-18.8-0.1-34.7,15.5-34.5,34c0.1,6.5,4.8,11.6,11.1,11.8
				c6.1,0.2,11.3-4.5,11.8-10.6c0.1-0.6,0-1.3,0.1-1.9c0.7-6.3,6.4-10.9,12.7-10.2c4.9,0.5,8.9,4.1,10,9c1.2,5.4-1.8,10.6-7.7,13.2
				c-9.8,4.4-15.3,13.1-14.9,23.6c0,3.7,2.1,7,5.3,8.7c7,4,15.2,0.4,17.3-7.8c0.6-2.4,1.8-3.4,3.8-4.5c17.1-8.2,24.3-28.7,16.1-45.9
				C225.2,242.8,213.2,235.2,200.1,235.2L200.1,235.2z M211.4,338.5c0.1-6.4-4.9-11.6-11.3-11.7c-6.4-0.1-11.6,4.9-11.7,11.3
				c-0.1,6.4,4.9,11.6,11.3,11.7c0.1,0,0.1,0,0.2,0C206.1,349.8,211.2,344.7,211.4,338.5L211.4,338.5z"/>
			<path class="st0" d="M99.6,216.3L10.8,97.6h3.6c28.9,0,57.8,0,86.7,0.1c1.9,0.1,3.8,0.9,5.1,2.3c18.5,23.4,36.9,46.8,55.3,70.2
				c0.3,0.4,0.6,0.8,1.2,1.8C137.1,180.2,116.2,195,99.6,216.3z"/>
			<path class="st0" d="M300.3,216.3c-16.5-21.2-37.3-36-62.9-44.3c0.9-1.3,1.7-2.4,2.5-3.5c17.8-22.7,35.7-45.5,53.6-68.1
				c1-1.3,3-2.6,4.5-2.6c29.7-0.2,59.3-0.2,89-0.1c0.5,0,0.9,0.1,2,0.2L300.3,216.3z"/>
		</g>
	</g>
</g>
</svg>
