<?xml version="1.0" encoding="utf-8"?>
<!-- Generator: Adobe Illustrator 25.0.0, SVG Export Plug-In . SVG Version: 6.00 Build 0)  -->
<svg version="1.1" id="Layer_1" xmlns="http://www.w3.org/2000/svg" xmlns:xlink="http://www.w3.org/1999/xlink" x="0px" y="0px"
	 viewBox="0 0 400 400" style="enable-background:new 0 0 400 400;" xml:space="preserve">
<style type="text/css">
	.st0{fill:#F09E28;}
</style>
<g id="Layer_2_1_">
	<g id="Layer_1-2">
		<g id="vFbhO1.tif">
			<path class="st0" d="M39.4,148.6c2.2-4.2,1.3-8.9,1.8-13.4C44.6,102,58,70.5,79.6,45c2.3-2.8,2.7-4.3-0.2-7
				C72.5,31.6,66,24.7,59.2,18.1C57,16,56.3,14.7,59,12.4c3.7-3.1,6.7-8.9,10.4-9.4s7,5.7,10.3,9c8.8,8.6,17.4,17.4,26.2,26
				c2.3,2.2,2.9,3.5,0.2,6.1c-21.6,21.1-36.4,46.1-43.4,75.7c-19.3,81.6,34.5,164.8,116.9,180.4c46.6,8.8,88.4-2,125.3-31.9
				c4.7-3.9,9.2-8.1,13.4-12.6c1.9-1.9,2.9-2.3,4.9-0.2c11.9,12.1,23.8,24.1,35.9,36c1.8,1.8,2,2.9,0,4.6c-3.7,3.3-7,9.2-10.9,9.6
				c-3.9,0.4-7.1-6-10.7-9.3c-4.8-4.6-9.5-9.3-14.1-14.1c-2-2.1-3.2-2.4-5.6-0.4c-28.2,23.6-60.6,37-97.3,39.5
				c-4.3,0.3-5.9,1.5-5.6,6.1c0.4,9.1,0.3,18.3,0,27.4c-0.1,3.5,0.9,4.5,4.4,4.5c16.6-0.2,33.2-0.2,49.8,0
				c20,0.1,34.7,11.5,38.8,29.8c0.1,0.3,0.2,0.6,0.2,1c1.3,6.8,1.3,6.8-5.7,6.8H108.8c-6.5,0-6.5,0-5.5-6.6
				c2.5-15.6,16.1-29,31.9-30.5c16-1.5,32.2-0.3,48.3-0.6c4.1-0.1,9.5,1.8,12-0.8c2.8-2.7,0.8-8.2,0.9-12.4c0.2-7.1,0-14.3,0.1-21.4
				c0-2.5-0.9-3.3-3.4-3.6c-75.2-8.2-132.6-59.6-149.2-133.5c-1.9-8.9-3-18-3.5-27.1c-0.1-1.3,0.9-3-1-3.9V148.6z"/>
			<path class="st0" d="M208.6,276.5c-67.4,0-122-54.6-122-122c0-67.4,54.6-122,122-122s122,54.6,122,122c0,0.1,0,0.1,0,0.2
				c0.3,67-53.9,121.6-120.9,121.8C209.3,276.5,209,276.5,208.6,276.5z"/>
		</g>
	</g>
</g>
</svg>
