<?xml version="1.0" encoding="utf-8"?>
<!-- Generator: Adobe Illustrator 25.0.0, SVG Export Plug-In . SVG Version: 6.00 Build 0)  -->
<svg version="1.1" id="Layer_1" xmlns="http://www.w3.org/2000/svg" xmlns:xlink="http://www.w3.org/1999/xlink" x="0px" y="0px"
	 viewBox="0 0 110 110" style="enable-background:new 0 0 110 110;" xml:space="preserve">
<style type="text/css">
	.st0{fill:#D41268;}
	.st1{fill:#FFFFFF;}
</style>
<path class="st0" d="M88.9,110H21.1C9.5,110,0,100.5,0,88.9V21.1C0,9.5,9.5,0,21.1,0h67.8C100.5,0,110,9.5,110,21.1v67.8
	C110,100.5,100.5,110,88.9,110z"/>
<g id="Layer_2_1_">
	<g id="Layer_1-2">
		<g id="LBvcHB.tif">
			<path class="st1" d="M92.5,25.3v50.1c-0.7,1.8-1.9,2.7-3.9,2.7c-22.4,0-44.8,0-67.1,0c-0.5,0-1,0-1.4-0.2
				c-1.6-0.4-2.5-1.8-2.5-3.7c0-15.9,0-31.8,0-47.7c0-0.2,0-0.5,0-0.7c0.1-1.4,1.1-2.6,2.5-3c0.5-0.1,1-0.2,1.5-0.1
				c22.3,0,44.6,0,66.9,0c0.3,0,0.5,0,0.8,0c1.4,0.1,2.4,0.8,3,2.1C92.3,25,92.4,25.1,92.5,25.3z M22.7,27.8v45.1h64.6V27.8
				L22.7,27.8z"/>
			<path class="st1" d="M92.5,84c-0.5,1.1-1.3,1.5-2.5,1.5c-14.7,0-29.4,0-44.1,0H45v-3.8H46c14.6,0,29.2,0,43.9,0
				c1.2,0,2.1,0.3,2.7,1.3L92.5,84z"/>
			<path class="st1" d="M37.6,81.6v3.7c-0.2,0-0.4,0.1-0.7,0.1c-5.7,0-11.5,0-17.2,0c-0.5,0-0.9-0.1-1.3-0.3c-0.7-0.4-1.1-1.2-0.9-2
				c0.2-0.8,0.9-1.4,1.8-1.5c0.2,0,0.4,0,0.6,0L37.6,81.6L37.6,81.6z"/>
			<path class="st1" d="M43.6,83.6c0,0.5,0,1.1,0,1.6c0,1.2-1,2.2-2.2,2.2c-1.2,0-2.3-0.8-2.3-2c-0.1-1.2-0.1-2.4,0-3.6
				c0.1-1.2,1.1-2.1,2.3-2c1.2,0,2.2,1,2.2,2.2C43.6,82.4,43.6,83,43.6,83.6L43.6,83.6z"/>
			<path class="st1" d="M51,51.1c1.3,1.3,2.5,2.5,3.6,3.7c0.1,0.2,0.1,0.5,0.1,0.8c-0.4,3-0.9,6-1.4,9c-0.1,0.8-0.1,1.6,0.5,2.2
				c0.4,0.4,0.7,1,1.2,1.6c0.6-0.9,1.2-1.6,1.7-2.4c0.2-0.3,0-0.7,0-1.1c-0.5-3.1-0.9-6.2-1.4-9.2c-0.1-0.5,0.1-0.9,0.4-1.2
				c1.1-1.1,2.1-2.1,3.1-3.2c0.2,0,0.2,0,0.2,0c1.9,2,4.4,2.9,6.8,4c1.2,0.5,2,1.3,2.5,2.6c1.1,2.9,2.2,5.8,2.8,8.9
				c0,0.1,0,0.2,0.1,0.3c0.3,2.2,0,2.5-2.2,2.5H40.3c-1.3,0-1.7-0.2-1.5-1.6c0.2-1.6,0.5-3.2,1-4.8c0.6-2,1.4-4,2.1-6
				c0.3-0.7,0.8-1.3,1.6-1.7c0.5-0.2,1-0.5,1.5-0.7C47.1,53.9,49.3,53.1,51,51.1z"/>
			<path class="st1" d="M63.8,39.4c-0.1,3.8-1,7.1-3.4,9.8c-3.5,4-8.3,3.9-11.5-0.4c-2.7-3.7-3.3-8-2.4-12.4
				c0.6-2.6,2.3-4.2,4.8-4.9c2.3-0.6,4.7-0.7,6.9-0.1c3,0.8,4.9,2.9,5.3,6C63.7,38.2,63.8,38.9,63.8,39.4z M53.3,41.9
				c0.1-0.2,0.1-0.3,0.2-0.4c0.8-1.4,0.3-2.4-1.2-2.8c-2.1-0.5-4.5,0.6-3.9,3.5c0.5,2.3,1.2,4.4,2.8,6.2c1.9,2.1,4.6,2.4,6.7,0.6
				c1-0.9,1.8-1.9,2.4-3c1-1.7,1.6-3.6,1.3-5.6c-0.2-1.1-0.7-1.4-1.7-0.9c-1.1,0.5-2.1,1.1-3.2,1.6C55.7,41.7,54.6,42,53.3,41.9z"/>
		</g>
	</g>
</g>
</svg>
