<?xml version="1.0" encoding="utf-8"?>
<!-- Generator: Adobe Illustrator 25.0.0, SVG Export Plug-In . SVG Version: 6.00 Build 0)  -->
<svg version="1.1" id="Layer_1" xmlns="http://www.w3.org/2000/svg" xmlns:xlink="http://www.w3.org/1999/xlink" x="0px" y="0px"
	 viewBox="0 0 110 110" style="enable-background:new 0 0 110 110;" xml:space="preserve">
<style type="text/css">
	.st0{fill:#D41268;}
	.st1{fill:#FFFFFF;}
</style>
<path class="st0" d="M88.9,110H21.1C9.5,110,0,100.5,0,88.9V21.1C0,9.5,9.5,0,21.1,0h67.8C100.5,0,110,9.5,110,21.1v67.8
	C110,100.5,100.5,110,88.9,110z"/>
<g id="Layer_2_1_">
	<g id="Layer_1-2">
		<g id="zSvRov.tif">
			<path class="st1" d="M55,23.3c1.1,2.3,2.3,4.6,3.4,6.9c0.3,0.6,0.7,0.8,1.3,0.9c2.5,0.3,4.9,0.7,7.6,1.1
				c-0.3,0.3-0.4,0.5-0.6,0.6c-1.7,1.6-3.4,3.3-5.1,4.9c-0.3,0.3-0.4,0.6-0.3,1c0.4,2.3,0.8,4.6,1.2,7c0,0.2,0,0.5,0.1,0.8
				c-1.1-0.6-2.1-1.1-3.1-1.6c-1.3-0.7-2.6-1.3-3.9-2c-0.3-0.2-0.7-0.2-1.1,0c-2,1.1-4,2.1-6.1,3.2c-0.3,0.1-0.6,0.3-1,0.5
				c0.2-1.3,0.4-2.5,0.6-3.7c0.2-1.4,0.4-2.8,0.7-4.2c0.1-0.4,0-0.7-0.3-1c-1.7-1.6-3.4-3.3-5.1-5c-0.2-0.2-0.3-0.3-0.6-0.6l5.4-0.8
				c0.2-0.1,0.4-0.1,0.6-0.1c1.9,0.1,2.8-0.9,3.5-2.6c0.6-1.6,1.5-3.1,2.3-4.7c0.1-0.2,0.2-0.4,0.2-0.7H55z"/>
			<path class="st1" d="M92.4,86.7H79.5V66.3h0.9c3.7,0,7.5,0,11.2,0c0.3,0,0.5,0,0.8,0v0.3c-0.5,1.9-0.9,3.9-1.6,5.7
				c-1,2.8-1.1,5.6,0,8.4c0.7,1.9,1.1,3.8,1.6,5.7L92.4,86.7z"/>
			<path class="st1" d="M92.4,42c-1.5,1.4-2.9,2.9-4.4,4.1c-1.2,1-1.5,1.9-1.1,3.4c0.4,1.7,0.6,3.4,0.9,5.2c0,0.2,0,0.5,0.1,0.8
				c-0.9-0.5-1.7-0.9-2.5-1.3c-1.4-0.7-2.8-1.4-4.1-2.2c-0.4-0.2-0.7-0.2-1.1,0c-2.1,1.1-4.3,2.3-6.6,3.5c0.2-1,0.3-1.9,0.4-2.7
				c0.3-1.5,0.5-3.1,0.8-4.6c0.1-0.4,0-0.9-0.4-1.1c-1.6-1.5-3.1-3-4.7-4.6c-0.2-0.2-0.4-0.3-0.6-0.5l0.1-0.2
				c1.6-0.2,3.3-0.5,4.9-0.7c0.8-0.1,1.6-0.2,2.4-0.3c0.4,0,0.7-0.3,0.9-0.7c1.1-2.2,2.2-4.4,3.3-6.7c0.2,0.3,0.3,0.5,0.4,0.7
				c1,2,2,4,3,6c0.1,0.4,0.5,0.6,0.9,0.6c2.5,0.3,5,0.7,7.4,1.1L92.4,42z"/>
			<path class="st1" d="M75.1,61.5v20.3H35V61.5H75.1z"/>
			<path class="st1" d="M17.7,66.3h12.8v20.3H17.6c0.2-0.9,0.5-1.9,0.7-2.8c0.6-2.3,1.2-4.5,1.8-6.8c0.1-0.4,0.1-0.8,0-1.2
				c-0.7-2.9-1.5-5.9-2.3-8.8C17.8,66.9,17.7,66.6,17.7,66.3z"/>
			<path class="st1" d="M17.6,41.9c2.1-0.3,4.1-0.6,6.1-0.9c1.9-0.3,1.9-0.2,2.8-2c0.8-1.6,1.6-3.2,2.4-4.8c0.1-0.2,0.2-0.4,0.4-0.7
				c0.8,1.6,1.5,3,2.2,4.5c0.3,0.7,0.7,1.3,1,2c0.2,0.6,0.6,0.8,1.2,0.8c2.2,0.3,4.4,0.6,6.6,0.9c0.2,0,0.3,0.1,0.6,0.1
				c-0.4,0.4-0.7,0.7-1,1c-1.5,1.4-2.9,2.8-4.4,4.3c-0.2,0.3-0.3,0.6-0.3,0.9c0.3,2.2,0.7,4.4,1.1,6.5c0,0.2,0.1,0.5,0.1,0.9
				c-0.3-0.1-0.5-0.2-0.8-0.4c-1.9-1-3.9-2-5.8-3.1c-0.4-0.2-0.7-0.2-1.1,0c-1.9,1.1-3.9,2.1-5.9,3.1c-0.2,0.1-0.4,0.2-0.8,0.4
				c0.3-1.6,0.5-3.1,0.8-4.5c0.1-0.8,0.2-1.6,0.4-2.3c0.3-0.9,0-1.4-0.7-2c-1.5-1.4-2.9-2.8-4.4-4.2C18,42.3,17.8,42.1,17.6,41.9z"
				/>
		</g>
	</g>
</g>
</svg>
