<?xml version="1.0" encoding="utf-8"?>
<!-- Generator: Adobe Illustrator 25.0.0, SVG Export Plug-In . SVG Version: 6.00 Build 0)  -->
<svg version="1.1" id="Layer_1" xmlns="http://www.w3.org/2000/svg" xmlns:xlink="http://www.w3.org/1999/xlink" x="0px" y="0px"
	 viewBox="0 0 512 512" style="enable-background:new 0 0 512 512;" xml:space="preserve">
<style type="text/css">
	.st0{fill:#18206F;}
</style>
<g id="Layer_2_1_">
	<g id="Layer_1-2">
		<g id="_2p4vIp.tif">
			<path class="st0" d="M443.3,233.6V466c-0.4,1-0.8,2-1.1,3.1c-4.3,17.2-14.9,28.8-31.6,34.7c-2.4,0.9-4.9,1.5-7.3,2.2H108.7
				c-0.3-0.3-0.7-0.6-1.2-0.8c-25.3-6.1-38.8-23.2-38.8-49.3c0-71.1,0-142.1,0-213.2c0-28.9,20.1-48.9,49.1-49h13.3
				c0-20.4-0.2-40.2,0.1-60.1c0.1-8.1,0.7-16.2,2-24.3C143.6,44,209-3.1,274.3,7.5c62.7,10.2,106.5,61.6,106.6,125.1
				c0,18.6,0,37.1,0,55.6v5.4c6.1,0,11.4-0.1,16.8,0c20,0.5,37.4,13.6,43.5,32.6C441.9,228.7,442.6,231.2,443.3,233.6z M339.2,193.4
				c0-16.3,0.1-32.2-0.1-48.1c-0.1-9.6,0.1-19.3-1.3-28.7c-6.6-43.5-50.5-75-93.8-67.8c-42.3,7-70.9,40.6-71.1,83.5
				c-0.1,18.1,0,36.1,0,54.2v6.9H339.2z M235.3,380.4c0,3.4,0,6.8,0,10.3c0,4.1-0.1,8.1,0.1,12.2c0.4,11.1,9.5,19.9,20.6,19.9
				c11.1,0.1,20.3-8.7,20.7-19.8c0.3-14.3,0.2-28.6,0-42.9c0-3.8,1-6.1,4.2-8.4c18.3-13.6,22.1-39.6,8.5-57.9
				c-10.2-13.7-27.8-19.8-44.3-15.2c-16.1,4.6-26.3,15.4-29.7,31.7c-3.5,17,2.3,31.1,16.1,41.6c2.7,2.1,4,4.1,3.9,7.6
				C235.1,366.4,235.3,373.4,235.3,380.4z"/>
		</g>
	</g>
</g>
</svg>
