<?xml version="1.0" encoding="utf-8"?>
<!-- Generator: Adobe Illustrator 25.0.0, SVG Export Plug-In . SVG Version: 6.00 Build 0)  -->
<svg version="1.1" id="Layer_1" xmlns="http://www.w3.org/2000/svg" xmlns:xlink="http://www.w3.org/1999/xlink" x="0px" y="0px"
	 viewBox="0 0 283.1 308.6" style="enable-background:new 0 0 283.1 308.6;" xml:space="preserve">
<style type="text/css">
	.st0{fill:#171C71;}
</style>
<g id="Layer_2_1_">
	<g id="Layer_1-2">
		<g id="_6KpRSz.tif">
			<path class="st0" d="M0,162.7c0.6-5.3,0.9-10.6,1.8-15.8c8.5-50.6,36.1-86.8,82.3-108.8c7.1-3.4,14.7-0.7,17.7,5.8
				s0.4,14.1-6.7,17.4C81,67.9,68.3,76.5,57.5,87.9c-15.7,16.7-26,36.2-29.6,58.8C21,189.7,33,226.5,65.4,255.9
				c18,16.4,39.7,25.7,64,28.1c39.4,3.8,72.6-9.2,99.1-38.4c17-18.7,26.2-41.1,28.5-66.3c2.2-24.6-2.5-47.8-14.8-69.2
				c-12.2-21.5-31-38.5-53.5-48.6c-7.4-3.4-10.3-10.7-7-17.7c3-6.4,10.7-9,17.8-5.6c44,20.9,72.3,54.8,81,102.7
				c10.1,55.7-7.9,102.2-51.9,138c-21.3,17.3-46.2,26.7-73.6,29.3c-0.6,0.1-1.1,0.3-1.7,0.5h-22.9c-0.7-0.2-1.3-0.4-2-0.5
				c-26.4-2.4-51.5-12.3-72.4-28.5c-29.2-22.5-47.1-52.1-53.5-88.5c-1.2-6.6-1.6-13.3-2.4-20V162.7z"/>
			<path class="st0" d="M128.9,51.2c0-12.6-0.1-25.1,0-37.7C129,4,136.4-1.8,145.4,0.5c4.7,1.4,8.2,5.4,8.9,10.3
				c0.1,0.6,0.1,1.2,0.1,1.8c0,25.8,0.1,51.6,0,77.4c0.1,5.9-3.9,11-9.6,12.3c-8.2,2.1-15.8-3.7-15.9-12.6c-0.2-11.3,0-22.7-0.1-34
				L128.9,51.2z"/>
		</g>
	</g>
</g>
</svg>
