<?xml version="1.0" encoding="utf-8"?>
<!-- Generator: Adobe Illustrator 25.0.0, SVG Export Plug-In . SVG Version: 6.00 Build 0)  -->
<svg version="1.1" id="Layer_1" xmlns="http://www.w3.org/2000/svg" xmlns:xlink="http://www.w3.org/1999/xlink" x="0px" y="0px"
	 viewBox="0 0 1006.9 234.5" style="enable-background:new 0 0 1006.9 234.5;" xml:space="preserve">
<style type="text/css">
	.st0{fill:#FFFFFF;}
	.st1{enable-background:new    ;}
</style>
<g id="Layer_1-2">
	<g>
		<path class="st0" d="M398.3,150v-21.3h42.8v-16.6h-42.8V112h-21.2v55.2h71.4V150H398.3z M398.3,92.1h50.2V75h-71.4v17.1
			L398.3,92.1L398.3,92.1z"/>
	</g>
	<g>
		<polygon class="st0" points="587.4,72.8 564,137.8 541.1,72.8 517.5,72.8 517.5,73 550.5,168.8 577.2,168.8 612,72.8 		"/>
	</g>
	<g>
		<polygon class="st0" points="492.8,72.8 466.6,72.8 501.2,168.8 526.1,168.8 507.6,115.2 		"/>
	</g>
	<g>
		<path class="st0" d="M354.5,74.4v92.8h-17.6l-46.2-56.3v56.3h-21.2V74.4h17.8l46.1,56.4V74.4H354.5z"/>
	</g>
	<g>
		<path class="st0" d="M759.7,150v-21.3h42.8v-16.6h-42.8V112h-21.2v55.2h71.4V150H759.7z M759.7,92.1h50.2V75h-71.3v17.1
			L759.7,92.1L759.7,92.1z"/>
	</g>
	<g>
		<path class="st0" d="M716.8,74.4v92.8h-17.6L653,110.8v56.3h-21.2V74.4h17.8l46.1,56.4V74.4H716.8z"/>
	</g>
	<g>
		<path class="st0" d="M834.5,158l7.3-16.2c7.8,5.7,19.5,9.7,30.6,9.7c12.7,0,17.9-4.2,17.9-9.9c0-17.4-53.9-5.4-53.9-39.9
			c0-15.8,12.7-28.9,39.1-28.9c11.7,0,23.6,2.8,32.2,8.2l-6.6,16.3c-7.8-4.6-16.7-7.1-25.7-7.3c-12.7,0-17.6,4.8-17.6,10.6
			c0,17.1,53.9,5.3,53.9,39.4c0,15.5-12.9,28.8-39.4,28.8C857.5,168.7,842.7,164.3,834.5,158z"/>
	</g>
	<g>
		<path class="st0" d="M925.2,158l7.3-16.2c7.8,5.7,19.5,9.7,30.6,9.7c12.7,0,17.9-4.2,17.9-9.9c0-17.4-53.9-5.4-53.9-39.9
			c0-15.8,12.7-28.9,39.1-28.9c11.7,0,23.6,2.8,32.2,8.2l-6.6,16.3c-7.8-4.6-16.7-7.1-25.7-7.3c-12.7,0-17.6,4.8-17.6,10.6
			c0,17.1,53.9,5.3,53.9,39.4c0,15.5-12.8,28.8-39.4,28.8C948.3,168.7,933.5,164.3,925.2,158z"/>
	</g>
	<g>
		<path class="st0" d="M197.6,33.7L90.6,7c-22.9-5.7-46.1,8.2-51.9,31.2c0,0.2-0.1,0.4-0.1,0.6L5,181.9c-2.1,8.8,3.4,17.5,12.1,19.6
			c1.3,0.3,2.7,0.5,4,0.4l45.6-0.9c7.4-0.2,13.8-5.3,15.5-12.5l15.5-65.6c1.1-4.4-1.7-8.9-6.1-9.9c-0.1,0-0.2,0-0.3-0.1l-1.7-0.3
			c-5-1-8.3-5.9-7.3-11c0.4-2,1.4-3.8,3-5.1l30.7-27c4.6-4.1,11.7-3.6,15.8,1c0.6,0.7,1.2,1.5,1.6,2.4l18.4,36.9
			c2.3,4.6,0.4,10.2-4.2,12.5c-1.9,0.9-4,1.2-6,0.8l0,0c-4.4-0.9-8.7,1.9-9.7,6.2l-9.5,41.1c-1.5,6.5,1.1,13.2,6.5,17l39.8,27.9
			c7.4,5.2,17.5,3.4,22.7-4c1.1-1.6,2-3.5,2.5-5.4l31.3-126.1C230.3,59.5,218,38.8,197.6,33.7z"/>
	</g>
	<g class="st1">
		<path class="st0" d="M799.8,216.3l6.4,2c-1,3.5-2.6,6.2-4.9,7.9s-5.1,2.6-8.6,2.6c-4.3,0-7.9-1.5-10.6-4.4
			c-2.8-2.9-4.2-7-4.2-12.1c0-5.4,1.4-9.6,4.2-12.6c2.8-3,6.5-4.5,11-4.5c4,0,7.2,1.2,9.7,3.5c1.5,1.4,2.6,3.4,3.3,6l-6.5,1.6
			c-0.4-1.7-1.2-3-2.4-4s-2.7-1.5-4.4-1.5c-2.4,0-4.4,0.9-5.9,2.6s-2.3,4.5-2.3,8.4c0,4.1,0.7,7,2.2,8.8c1.5,1.7,3.4,2.6,5.8,2.6
			c1.7,0,3.2-0.6,4.5-1.7C798.4,220.4,799.3,218.7,799.8,216.3z"/>
		<path class="st0" d="M820.9,228.2v-32.5h6.2v32.5H820.9z"/>
		<path class="st0" d="M847.2,211.9l-5.7-1c0.6-2.3,1.7-4,3.3-5.1c1.6-1.1,3.9-1.6,6.9-1.6c2.8,0,4.8,0.3,6.2,1
			c1.4,0.7,2.3,1.5,2.9,2.5c0.6,1,0.8,2.9,0.8,5.6l-0.1,7.3c0,2.1,0.1,3.6,0.3,4.6c0.2,1,0.6,2,1.1,3.2h-6.2c-0.2-0.4-0.4-1-0.6-1.8
			c-0.1-0.4-0.2-0.6-0.2-0.7c-1.1,1-2.2,1.8-3.4,2.3s-2.5,0.8-3.9,0.8c-2.4,0-4.3-0.7-5.7-2c-1.4-1.3-2.1-3-2.1-5
			c0-1.3,0.3-2.5,1-3.6c0.6-1,1.5-1.8,2.7-2.4c1.1-0.6,2.8-1,5-1.5c2.9-0.5,4.9-1.1,6.1-1.5v-0.6c0-1.2-0.3-2.1-0.9-2.6
			c-0.6-0.5-1.7-0.8-3.3-0.8c-1.1,0-2,0.2-2.6,0.7C848.1,210,847.6,210.8,847.2,211.9z M855.6,216.9c-0.8,0.3-2.1,0.6-3.8,1
			c-1.7,0.4-2.9,0.7-3.4,1.1c-0.8,0.6-1.2,1.3-1.2,2.2c0,0.9,0.3,1.6,1,2.3c0.7,0.6,1.5,1,2.5,1c1.1,0,2.2-0.4,3.2-1.1
			c0.8-0.6,1.2-1.2,1.5-2.1c0.2-0.5,0.2-1.5,0.2-3V216.9z"/>
		<path class="st0" d="M874.7,221.5l6.3-1c0.3,1.2,0.8,2.1,1.6,2.8c0.8,0.6,2,0.9,3.4,0.9c1.6,0,2.8-0.3,3.6-0.9
			c0.5-0.4,0.8-1,0.8-1.7c0-0.5-0.1-0.9-0.4-1.2c-0.3-0.3-1-0.6-2.1-0.8c-5-1.1-8.2-2.1-9.6-3c-1.9-1.3-2.8-3-2.8-5.3
			c0-2,0.8-3.8,2.4-5.1s4.1-2.1,7.5-2.1c3.2,0,5.6,0.5,7.2,1.6c1.6,1.1,2.6,2.6,3.2,4.7l-5.9,1.1c-0.3-0.9-0.7-1.6-1.4-2.1
			c-0.7-0.5-1.7-0.7-3-0.7c-1.6,0-2.8,0.2-3.5,0.7c-0.5,0.3-0.7,0.7-0.7,1.3c0,0.4,0.2,0.8,0.6,1.1c0.6,0.4,2.5,1,5.8,1.8
			c3.3,0.8,5.6,1.7,7,2.8c1.3,1.1,2,2.7,2,4.6c0,2.2-0.9,4-2.7,5.6c-1.8,1.6-4.5,2.3-8,2.3c-3.2,0-5.7-0.7-7.6-2
			C876.5,225.5,875.3,223.8,874.7,221.5z"/>
		<path class="st0" d="M909.1,221.5l6.3-1c0.3,1.2,0.8,2.1,1.6,2.8c0.8,0.6,2,0.9,3.4,0.9c1.6,0,2.8-0.3,3.6-0.9
			c0.5-0.4,0.8-1,0.8-1.7c0-0.5-0.1-0.9-0.4-1.2c-0.3-0.3-1-0.6-2.1-0.8c-5-1.1-8.2-2.1-9.6-3c-1.9-1.3-2.8-3-2.8-5.3
			c0-2,0.8-3.8,2.4-5.1s4.1-2.1,7.5-2.1c3.2,0,5.6,0.5,7.2,1.6c1.6,1.1,2.6,2.6,3.2,4.7l-5.9,1.1c-0.3-0.9-0.7-1.6-1.4-2.1
			c-0.7-0.5-1.7-0.7-3-0.7c-1.6,0-2.8,0.2-3.5,0.7c-0.5,0.3-0.7,0.7-0.7,1.3c0,0.4,0.2,0.8,0.6,1.1c0.6,0.4,2.5,1,5.8,1.8
			c3.3,0.8,5.6,1.7,7,2.8c1.3,1.1,2,2.7,2,4.6c0,2.2-0.9,4-2.7,5.6c-1.8,1.6-4.5,2.3-8,2.3c-3.2,0-5.7-0.7-7.6-2
			C910.9,225.5,909.6,223.8,909.1,221.5z"/>
		<path class="st0" d="M959.2,220.7l6.2,1c-0.8,2.3-2.1,4-3.8,5.2s-3.9,1.8-6.5,1.8c-4.1,0-7.1-1.3-9.1-4c-1.6-2.1-2.3-4.8-2.3-8.1
			c0-3.9,1-7,3.1-9.2c2-2.2,4.6-3.3,7.7-3.3c3.5,0,6.3,1.2,8.3,3.5c2,2.3,3,5.9,2.9,10.6h-15.6c0,1.8,0.5,3.3,1.5,4.3
			c1,1,2.2,1.5,3.6,1.5c1,0,1.8-0.3,2.5-0.8S958.9,221.9,959.2,220.7z M959.6,214.4c0-1.8-0.5-3.2-1.4-4.1c-0.9-0.9-2-1.4-3.2-1.4
			c-1.4,0-2.5,0.5-3.4,1.5c-0.9,1-1.3,2.3-1.3,4H959.6z"/>
		<path class="st0" d="M977.8,221.5l6.3-1c0.3,1.2,0.8,2.1,1.6,2.8c0.8,0.6,2,0.9,3.4,0.9c1.6,0,2.8-0.3,3.6-0.9
			c0.5-0.4,0.8-1,0.8-1.7c0-0.5-0.1-0.9-0.4-1.2c-0.3-0.3-1-0.6-2.1-0.8c-5-1.1-8.2-2.1-9.6-3c-1.9-1.3-2.8-3-2.8-5.3
			c0-2,0.8-3.8,2.4-5.1s4.1-2.1,7.5-2.1c3.2,0,5.6,0.5,7.2,1.6c1.6,1.1,2.6,2.6,3.2,4.7l-5.9,1.1c-0.3-0.9-0.7-1.6-1.4-2.1
			c-0.7-0.5-1.7-0.7-3-0.7c-1.6,0-2.8,0.2-3.5,0.7c-0.5,0.3-0.7,0.7-0.7,1.3c0,0.4,0.2,0.8,0.6,1.1c0.6,0.4,2.5,1,5.8,1.8
			c3.3,0.8,5.6,1.7,7,2.8c1.3,1.1,2,2.7,2,4.6c0,2.2-0.9,4-2.7,5.6c-1.8,1.6-4.5,2.3-8,2.3c-3.2,0-5.7-0.7-7.6-2
			C979.6,225.5,978.3,223.8,977.8,221.5z"/>
	</g>
</g>
</svg>
