<?xml version="1.0" encoding="utf-8"?>
<!-- Generator: Adobe Illustrator 25.0.0, SVG Export Plug-In . SVG Version: 6.00 Build 0)  -->
<svg version="1.1" id="Layer_1" xmlns="http://www.w3.org/2000/svg" xmlns:xlink="http://www.w3.org/1999/xlink" x="0px" y="0px"
	 viewBox="0 0 308.8 255.6" style="enable-background:new 0 0 308.8 255.6;" xml:space="preserve">
<style type="text/css">
	.st0{fill:#090909;}
</style>
<g id="Layer_2_1_">
	<g id="Layer_1-2">
		<g id="yvKaxI.tif">
			<path class="st0" d="M308.8,58.5v138.7c-0.5,2.4-0.8,4.9-1.4,7.4c-6.7,30.1-32.3,51-63.2,51.1c-59.9,0.1-119.7,0-179.6,0
				c-11.3,0.1-22.4-2.9-32.2-8.6c-21.3-12.7-32.1-31.7-32.3-56.5c-0.2-23.6-0.1-71.3,0-94.9c0-11.3-0.3-22.7,0.2-34
				C1.5,33,21.3,8.8,48.9,1.9c3-0.8,6-1.3,9-1.9h193c0.4,0.2,0.9,0.4,1.4,0.5c27.1,3.3,49.1,23.4,55,50
				C307.8,53.2,308.3,55.8,308.8,58.5z M26.1,90c-0.1,1-0.2,1.9-0.2,2.8c0,24.5,0,73.2,0,97.7c0,2.2,0.1,4.4,0.4,6.6
				c3,19.8,20.8,33,38.8,32.8c28.8-0.4,57.7-0.1,86.5-0.1c31.6,0,63.1,0.1,94.6-0.1c19.4-0.2,36.3-16.8,36.6-36.2
				c0.4-25.9,0.1-76,0.2-101.9c0-0.5-0.1-1-0.2-1.6L26.1,90z M283,64.3c-0.1-2.1-0.1-3.9-0.4-5.7c-3.4-19.7-18.6-32.7-38.6-32.8
				c-21.2-0.1-42.4,0-63.6,0c-39,0-78-0.1-116.9,0.1c-17.7,0.2-33,12.7-36.6,30.1c-0.5,2.7-0.8,5.5-1,8.3L283,64.3z"/>
			<path class="st0" d="M70.8,165.7c10.5-0.1,19.1,8.4,19.2,18.9c0,0,0,0.1,0,0.1c0.1,10.7-8.5,19.4-19.2,19.5c0,0,0,0,0,0
				c-10.7-0.2-19.2-8.9-19.3-19.5C51.6,174.1,60.3,165.6,70.8,165.7z"/>
		</g>
	</g>
</g>
</svg>
