<?xml version="1.0" encoding="utf-8"?>
<!-- Generator: Adobe Illustrator 16.0.0, SVG Export Plug-In . SVG Version: 6.00 Build 0)  -->
<!DOCTYPE svg PUBLIC "-//W3C//DTD SVG 1.1//EN" "http://www.w3.org/Graphics/SVG/1.1/DTD/svg11.dtd">
<svg version="1.1" id="Layer_1" xmlns="http://www.w3.org/2000/svg" xmlns:xlink="http://www.w3.org/1999/xlink" x="0px" y="0px"
	 width="612px" height="792px" viewBox="0 0 612 792" enable-background="new 0 0 612 792" xml:space="preserve">
<g id="Layer_2_1_">
	<g id="Layer_1-2_1_">
		<g id="Xm3iG0.tif_1_">
			<path d="M472.688,760.732H112.373c-9.189-2.197-18.55-3.708-27.511-6.691c-49.573-16.61-82.905-63.499-82.762-118.85
				c0.556-149.299,0.142-298.6,0.3-447.9c-0.077-10.668,0.801-21.322,2.625-31.834C18.338,83.354,80.523,31.771,154.966,31.527
				c100.625-0.343,201.197-0.428,301.881,0.257c16.591-0.033,33.082,2.568,48.857,7.706
				c64.099,21.859,103.638,77.312,103.854,145.547c0.457,140.791,0.457,281.548,0,422.271
				c-0.257,72.59-44.349,129.052-114.154,148.403C488.027,757.735,480.263,759.063,472.688,760.732z M185.146,92.458V517h364.082
				v-8.021c0-106.818,0-213.63,0-320.431c0.093-7.361-0.516-14.714-1.812-21.96c-8.562-44.463-44.963-74.001-91.324-74.086
				c-88.04-0.152-176.088-0.152-264.139,0L185.146,92.458z M548.656,578.414h-7.006c-138.1,0-276.196,0-414.295,0
				c-4.743-0.002-9.48,0.36-14.169,1.084c-34.246,5.252-57.591,41.98-47.916,75.071c8.177,27.954,30.151,44.948,60.16,45.005
				c111.52,0.219,223.044,0.219,334.572,0c25.972,0,47.26-10.771,64.868-29.236C549.6,644.467,550.969,612.318,548.656,578.414z
				 M63.201,532.625c10.416-3.926,19.705-8.278,29.468-10.831c9.76-2.555,20.39-3.454,30.749-5.094V97.923
				c-1.542,0.513-2.655,0.799-3.696,1.227c-35.53,14.57-56.805,47.717-56.821,88.941c-0.057,112.47-0.057,224.942,0,337.412
				C62.901,527.786,63.086,530.084,63.201,532.625L63.201,532.625z"/>
		</g>
	</g>
</g>
</svg>
