<?xml version="1.0" encoding="utf-8"?>
<!-- Generator: Adobe Illustrator 25.0.0, SVG Export Plug-In . SVG Version: 6.00 Build 0)  -->
<svg version="1.1" id="Layer_1" xmlns="http://www.w3.org/2000/svg" xmlns:xlink="http://www.w3.org/1999/xlink" x="0px" y="0px"
	 viewBox="0 0 231.4 308.7" style="enable-background:new 0 0 231.4 308.7;" xml:space="preserve">
<style type="text/css">
	.st0{fill:#171C71;}
</style>
<g id="Layer_2_1_">
	<g id="Layer_1-2">
		<g id="nTF6Hg.tif">
			<path class="st0" d="M215.7,308.7c-7.2-2.7-10.1-8-10.3-15.6c-1-38.3-26.3-71.8-62.9-83.2c-34.8-10.9-73.9,0.8-96.6,29.2
				c-12.6,15.7-19.6,33.8-20,54.1c-0.1,7.6-3,12.9-10.3,15.6h-6c-4.6-1.8-8.1-5.6-9.6-10.2v-10.2c1-5.9,1.5-11.9,3-17.7
				c12.1-46.9,41.5-77,88.9-87.6c63.3-14.2,125.5,27.8,137.5,91.7c1.2,6.4,1.5,12.9,2,19.4c0.6,7.3-3.3,11.8-9.6,14.7H215.7z"/>
			<path class="st0" d="M192.8,77.7c-0.6,41.7-33.5,76.7-77.5,76.6c-42.7-0.1-77.3-35.4-76.8-77.6C39.1,33.9,74-0.5,116.3,0
				C158.9,0.5,193.2,35.4,192.8,77.7z M115.7,128.5c28.4,0,51.3-23,51.3-51.4c0-28.4-23-51.3-51.4-51.3c-28.3,0-51.2,22.9-51.3,51.2
				c-0.2,28.3,22.6,51.3,50.9,51.5C115.4,128.5,115.5,128.5,115.7,128.5z"/>
		</g>
	</g>
</g>
</svg>
