<?xml version="1.0" encoding="utf-8"?>
<!-- Generator: Adobe Illustrator 25.0.0, SVG Export Plug-In . SVG Version: 6.00 Build 0)  -->
<svg version="1.1" id="Layer_1" xmlns="http://www.w3.org/2000/svg" xmlns:xlink="http://www.w3.org/1999/xlink" x="0px" y="0px"
	 viewBox="0 0 308.8 283.2" style="enable-background:new 0 0 308.8 283.2;" xml:space="preserve">
<style type="text/css">
	.st0{fill:#221C71;}
</style>
<g id="Layer_2_1_">
	<g id="Layer_1-2">
		<g id="gIyfq9.tif">
			<path class="st0" d="M157.4,283.2h-6c-6-0.7-12-1.2-17.9-2.2c-26-4.6-51.9-9.5-77.9-14C22.5,261.4,0,235.2,0,201.8
				c0-45.3,0-90.6,0-135.9c0-4.2,0.4-8.4,1.1-12.6c5.7-34.2,38.6-58,72.7-52.4c15.5,2.5,31,5.9,46.5,8.3c13.1,2.1,24.6,7.1,33.7,17
				c0.1,0.1,0.4,0.1,0.9,0.2c0.4-0.5,0.9-1.1,1.4-1.7c7.2-7.6,16.6-12.6,26.8-14.5c14.5-2.7,29-5.2,43.5-8
				c9.5-1.9,19.1-2.9,28.7-1.1c23.2,4.4,39.4,17.7,48.5,39.3c2.4,5.8,3.3,12.3,4.9,18.5v150.7c-0.2,0.6-0.4,1.3-0.6,1.9
				c-3.3,26.2-23.3,48.8-49.2,54.1c-27.3,5.5-54.8,10.2-82.2,15.1C170.4,281.9,163.9,282.4,157.4,283.2z M167.2,256.2
				c1.4-0.2,2.3-0.3,3.2-0.4c26.1-4.7,52.1-9.6,78.2-14.1c21.5-3.8,34.4-18.8,34.4-40.5c0-44.9,0-89.8,0-134.7c0-1.6,0-3.2-0.1-4.8
				c-0.8-21.4-21.9-39-43.1-35.5c-16.2,2.6-32.4,5.8-48.6,8.6c-15.5,2.7-23.9,12.6-24,28.2c0,63.2,0,126.4,0,189.6L167.2,256.2z
				 M141.4,256.3c0.1-1.2,0.2-2.1,0.2-3c0-7.4,0-14.9,0-22.3c0-56.1,0-112.1,0-168.2c0-15.2-7.7-24.8-22.7-27.7
				C102.4,32,86,28.9,69.4,26.2c-22-3.5-42.9,13.9-43.5,36.2c-0.3,12.7-0.1,25.3-0.1,38c0,33.9,0,67.7,0,101.6
				c0,20.1,12.3,35.4,31.9,39.1c23,4.4,46,8.4,69,12.6L141.4,256.3z"/>
		</g>
	</g>
</g>
</svg>
