<?xml version="1.0" encoding="utf-8"?>
<!-- Generator: Adobe Illustrator 25.0.0, SVG Export Plug-In . SVG Version: 6.00 Build 0)  -->
<svg version="1.1" id="Layer_1" xmlns="http://www.w3.org/2000/svg" xmlns:xlink="http://www.w3.org/1999/xlink" x="0px" y="0px"
	 viewBox="0 0 308.8 255.6" style="enable-background:new 0 0 308.8 255.6;" xml:space="preserve">
<style type="text/css">
	.st0{fill:#090909;}
</style>
<g id="Layer_2_1_">
	<g id="Layer_1-2">
		<g id="yvKaxI.tif">
			<path class="st0" d="M308.8,58.5v138.7c-0.5,2.4-0.8,4.9-1.4,7.4c-6.7,30.1-32.3,51-63.2,51.1c-59.9,0.1-119.7,0-179.6,0
				c-11.3,0.1-22.4-2.9-32.2-8.6c-21.3-12.7-32.1-31.7-32.3-56.5c-0.2-23.6-0.1-71.3,0-94.9c0-11.3-0.3-22.7,0.2-34
				C1.5,33,21.3,8.8,48.9,1.9c3-0.8,6-1.3,9-1.9h193c0.4,0.2,0.9,0.4,1.4,0.5c27.1,3.3,49.1,23.4,55,50
				C307.8,53.2,308.3,55.8,308.8,58.5z M26.1,90c-0.1,1-0.2,1.9-0.2,2.8c0,24.5,0,73.2,0,97.7c0,2.2,0.1,4.4,0.4,6.6
				c3,19.8,20.8,33,38.8,32.8c28.8-0.4,57.7-0.1,86.5-0.1c31.6,0,63.1,0.1,94.6-0.1c19.4-0.2,36.3-16.8,36.6-36.2
				c0.4-25.9,0.1-76,0.2-101.9c0-0.5-0.1-1-0.2-1.6L26.1,90z M283,64.3c-0.1-2.1-0.1-3.9-0.4-5.7c-3.4-19.7-18.6-32.7-38.6-32.8
				c-21.2-0.1-42.4,0-63.6,0c-39,0-78-0.1-116.9,0.1c-17.7,0.2-33,12.7-36.6,30.1c-0.5,2.7-0.8,5.5-1,8.3L283,64.3z"/>
			<path class="st0" d="M70.8,165.7c10.5-0.1,19.1,8.4,19.2,18.9c0,0,0,0.1,0,0.1c0.1,10.7-8.5,19.4-19.2,19.5c0,0,0,0,0,0
				c-10.7-0.2-19.2-8.9-19.3-19.5C51.6,174.1,60.3,165.6,70.8,165.7z"/>
		</g>
		<g id="TFFyLD.tif">
			<path class="st0" d="M110.4,153.7c0.4-1.3,1.4-2.3,2.6-2.8c2.1-0.7,4.4,0.4,5.1,2.5c0.1,0.4,0.2,0.9,0.2,1.3
				c0.1,2.2,0.3,4.4,0.6,6.6c2.8,14.6,11.1,24.9,25,30.3c20.1,7.8,42.8-2.1,50.8-22.2c5.3-13.4,3.6-26.2-4.7-38
				c-6-8.6-15.4-14.4-25.8-15.8c-10.2-1.7-20.6,0.7-29,6.7c-1.9,1.3-3.5,2.8-5.2,4.2l0.1,0.3c0.3,0,0.6,0.1,1,0.1
				c3.6,0,7.2,0,10.9,0c2.2-0.2,4.1,1.4,4.3,3.5s-1.4,4.1-3.5,4.3c-0.1,0-0.2,0-0.3,0c-4.4,0.1-8.8,0.1-13.2,0
				c-5.4-0.1-10.6-5.4-10.8-10.8c-0.1-4.3-0.1-8.6,0-12.8c0-1.9,1.3-3.6,3.2-4h1.5c2.5,1,3.2,2,3.2,4.9v7.3l0.9-0.8
				c6.4-5.6,14.3-9.3,22.7-10.7c1.7-0.3,3.4-0.5,5-0.7h6l1.7,0.2c9.8,0.9,19,4.9,26.4,11.4c12.7,11.3,18.1,25.5,16,42.3
				c-1.9,14.8-9.6,26.3-22.3,34.2c-22.4,13.7-51.6,6.7-65.4-15.7c-3.1-5.1-5.3-10.8-6.3-16.7c-0.3-1.7-0.5-3.5-0.7-5.2L110.4,153.7z
				"/>
			<path class="st0" d="M158.4,204.6c-2.7,0-5.5-0.2-8.2-0.6c-21.1-3.3-37.8-19.7-41.4-40.8c-0.2-1.2-0.4-2.5-0.5-3.7L108,158v-0.3
				v-4.5l0.2-0.5c0.7-1.9,2.2-3.3,4.1-4c1.9-0.6,3.9-0.4,5.6,0.7c1.7,1.2,2.7,3.1,2.8,5.2c0,0.6,0.1,1.2,0.1,1.9
				c0,1.5,0.2,3,0.4,4.5c2.7,13.9,10.6,23.5,23.5,28.5c18.9,7.3,40.2-2,47.6-20.9c5-12.6,3.5-24.6-4.4-35.7
				c-5.6-8.1-14.4-13.6-24.2-14.9c-9.6-1.6-19.4,0.7-27.2,6.3l-0.2,0.2c1.9,0,3.7,0,5.6,0c3.5-0.1,6.5,2.6,6.6,6.1
				c0.1,1.5-0.4,2.9-1.3,4.1c-1.1,1.5-2.9,2.4-4.8,2.4H142c-4.2,0-8.6,0.1-12.9,0c-6.7-0.2-12.9-6.5-13.1-13.2
				c-0.1-3.7-0.1-7.4-0.1-11v-1.9c0-3.1,1.7-5.3,4.9-6.3l0.4-0.1h2.3l0.4,0.2c3.4,1.4,4.7,3.3,4.7,7.1v2.3
				c6.2-4.5,13.4-7.6,20.9-8.8c1.2-0.2,2.4-0.4,3.5-0.5l1.6-0.2h0.3h6.3l0.6,0.1l1.1,0.2c10.3,1,20,5.2,27.7,12
				c13.4,11.9,19,26.9,16.8,44.4c-2,15.4-9.9,27.6-23.4,36C176.4,202.1,167.5,204.7,158.4,204.6z M112.8,157.4
				c0.1,0.5,0.1,1,0.2,1.5c0.2,1.2,0.3,2.3,0.5,3.4c3.3,19,18.3,33.8,37.4,36.8c10.6,1.8,21.5-0.4,30.6-6.1
				c12.2-7.6,19.4-18.5,21.1-32.5c2.1-15.9-3.1-29.4-15.2-40.2c-7-6.2-15.8-9.9-25.1-10.8l-1.2-0.2l-0.4-0.1h-5.6l-1.4,0.2
				c-1.2,0.2-2.2,0.3-3.4,0.5c-8,1.4-15.5,4.9-21.6,10.1l-0.5,0.4l-4.4,3.6v-12.5c0-1.7-0.1-1.9-1.3-2.4H122c-1.1,0.4-1.2,1-1.2,1.6
				v1.9c0,3.6,0,7.2,0.1,10.8c0.1,4.2,4.3,8.4,8.4,8.5c4.1,0.1,8.5,0.1,12.7,0h0.4c0.4,0,0.8-0.2,1-0.5c0.3-0.4,0.4-0.9,0.3-1.3
				c-0.2-0.6-0.5-1.1-1.8-1.2H131c-0.3,0-0.6,0-0.8,0l-1.8-0.1l-1.4-3.3l1.4-1.2c0.5-0.4,1.1-0.9,1.6-1.3c1.2-1.1,2.5-2.1,3.8-3
				c8.9-6.4,20-8.9,30.8-7.1c11.1,1.6,21,7.7,27.4,16.8c8.9,12.6,10.6,26.1,5,40.3c-8.4,21.4-32.6,31.9-54,23.5
				c-14.5-5.7-23.4-16.5-26.4-32.1c-0.3-1.7-0.5-3.4-0.5-5.1c0-0.6-0.1-1.2-0.1-1.8c0-0.6-0.3-1.2-0.7-1.5c-0.4-0.3-1-0.3-1.4-0.1
				c-0.3,0.1-0.6,0.4-0.9,1.1L112.8,157.4z"/>
			<path class="st0" d="M162,143.6c0,2.9,0,5.8,0,8.6c0,0.5,0.2,1,0.6,1.4c3.3,3.3,6.6,6.6,9.8,9.9c1.2,1.1,1.7,2.8,1.2,4.3
				c-0.7,2.1-2.9,3.2-4.9,2.5c-0.4-0.1-0.8-0.4-1.2-0.6c-0.3-0.2-0.5-0.4-0.8-0.7c-3.8-3.7-7.5-7.5-11.2-11.2
				c-1-0.9-1.5-2.2-1.4-3.5c0-6.4,0-12.7,0-19.1c0-2.3,1.2-3.8,3.1-4.2c2.1-0.5,4.1,0.8,4.6,2.8c0.1,0.2,0.1,0.5,0.1,0.8
				C162,137.5,161.9,140.5,162,143.6L162,143.6z"/>
			<path class="st0" d="M169.9,172.9c-1.4,0-2.8-0.5-3.9-1.3c-0.4-0.3-0.7-0.6-1-0.9l-3.6-3.7c-2.5-2.5-5.1-5.1-7.6-7.6
				c-1.4-1.4-2.2-3.2-2.1-5.2c0-3.7,0-7.4,0-11.1v-8c0-3.4,1.9-5.9,5-6.6c1.9-0.4,3.8,0,5.3,1.2c1.4,1.1,2.3,2.8,2.3,4.7
				c0.1,2.1,0.1,4.3,0,6.4c0,0.3,0,0.6,0,0.9v1.8v2.1c0,2.1,0,4.2,0,6.3c2.9,3,6,6,8.9,8.9l0.8,0.8c2.6,2.3,2.9,6.4,0.6,9
				c-1.2,1.4-3,2.2-4.8,2.2L169.9,172.9z M158,133.3h-0.4c-0.4,0.1-1.2,0.3-1.2,1.9c0,2.7,0,5.3,0,8c0,3.7,0,7.4,0,11.1
				c0,0.7,0.2,1.3,0.7,1.8c2.6,2.5,5.1,5.1,7.6,7.6l3.6,3.6c0.2,0.2,0.3,0.3,0.5,0.5c0.4,0.3,0.9,0.4,1.4,0.2c0.5-0.1,0.9-0.5,1-1
				c0.2-0.5,0.2-1-0.6-1.9l-0.8-0.8c-3-3-6-6-9-9.1c-0.8-0.8-1.2-1.9-1.3-3c0-2.1,0-4.2,0-6.3l0,0v-2.4c0-0.9,0-1.8,0-2.7
				c0-2,0-4.2,0-6.2c0-0.4-0.2-0.8-0.5-1C158.8,133.4,158.4,133.2,158,133.3z M164.2,151.9L164.2,151.9z"/>
		</g>
	</g>
</g>
</svg>
