<?xml version="1.0" encoding="utf-8"?>
<!-- Generator: Adobe Illustrator 25.0.0, SVG Export Plug-In . SVG Version: 6.00 Build 0)  -->
<svg version="1.1" id="Layer_1" xmlns="http://www.w3.org/2000/svg" xmlns:xlink="http://www.w3.org/1999/xlink" x="0px" y="0px"
	 viewBox="0 0 78.6 78.7" style="enable-background:new 0 0 78.6 78.7;" xml:space="preserve">
<style type="text/css">
	.st0{fill:#FFFFFF;}
</style>
<g id="Layer_2_1_">
	<g id="Layer_1-2">
		<path class="st0" d="M0,39.3c0-6.1,0-12.3,0-18.4C0.1,8.5,8.4,0.1,20.8,0.1s24.7-0.1,37.1,0s20.7,8.4,20.7,20.9
			c0.1,12.3,0.1,24.5,0,36.8c0,12.4-8.3,20.8-20.7,20.9s-24.7,0.1-37.1,0S0.1,70.2,0,57.7C0,51.6,0,45.5,0,39.3z M33.2,63.5h9.3
			V39.2h7.4c0.3-3.4,0.5-6.5,0.8-9.9h-7.8c0.2-1.9-0.2-4.4,0.6-4.9c1.9-1.1,4.4-1.3,6.7-1.9v-7.8c-4.9,0.3-9.8-1-13.9,2
			s-3.7,7.8-3.9,12.4l-4,0.4v9.6l4.8,0.3L33.2,63.5z"/>
	</g>
</g>
</svg>
