<?xml version="1.0" encoding="utf-8"?>
<!-- Generator: Adobe Illustrator 25.0.0, SVG Export Plug-In . SVG Version: 6.00 Build 0)  -->
<svg version="1.1" id="Layer_1" xmlns="http://www.w3.org/2000/svg" xmlns:xlink="http://www.w3.org/1999/xlink" x="0px" y="0px"
	 viewBox="0 0 78.6 78.6" style="enable-background:new 0 0 78.6 78.6;" xml:space="preserve">
<style type="text/css">
	.st0{fill:#FFFFFF;}
</style>
<g id="Layer_2_1_">
	<g id="Layer_1-2">
		<path class="st0" d="M0,39.3c0-6.2,0-12.5,0-18.7C0.2,8.6,8.4,0.2,20.5,0.1C33,0,45.5,0,57.9,0.1c12.2,0.1,20.6,8.5,20.7,20.7
			c0.1,12.4,0.1,24.8,0,37.1c-0.1,12.2-8.4,20.6-20.7,20.7s-24.8,0.1-37.1,0S0.1,70.2,0,57.7C0,51.6,0,45.5,0,39.3z M38.7,31.8
			c-8.4-0.4-14.8-4.3-20.4-10c-2.5,4.9-1,8.8,2.3,12.8L17,34c0.3,4.7,3.1,7.3,7.2,9.5l-3.6,0.4c1.4,4.2,4.7,5.7,9.3,6.9
			c-2.2,1.1-4.5,2.1-6.9,3c-2.3,0.5-4.7,0.9-7.1,1.2c0.8,0.5,1.3,0.8,1.8,1c14,7,31.1,1.3,38-12.8c0.7-1.5,1.4-3.1,1.8-4.7
			c1.4-4.7,0.2-10.4,5.3-13.7l-4,1l3.2-4.4c-0.6-0.2-1.2-0.2-1.7,0.1c-2.3,1.1-4.3,1.6-6.7-0.3c-2.4-1.7-5.5-2-8.2-0.9
			C40.3,22.3,38.4,26.3,38.7,31.8z"/>
	</g>
</g>
</svg>
