<?xml version="1.0" encoding="utf-8"?>
<!-- Generator: Adobe Illustrator 25.0.0, SVG Export Plug-In . SVG Version: 6.00 Build 0)  -->
<svg version="1.1" id="Layer_1" xmlns="http://www.w3.org/2000/svg" xmlns:xlink="http://www.w3.org/1999/xlink" x="0px" y="0px"
	 viewBox="0 0 78.7 78.7" style="enable-background:new 0 0 78.7 78.7;" xml:space="preserve">
<style type="text/css">
	.st0{fill:#FFFFFF;}
</style>
<g id="Layer_2_1_">
	<g id="Layer_1-2">
		<path class="st0" d="M0,39.2C0,33,0,26.9,0,20.8C0.1,8.5,8.4,0.2,20.6,0.1c12.5-0.1,25-0.1,37.4,0c12,0.1,20.4,8.5,20.5,20.5
			c0.1,12.5,0.1,25,0,37.4c-0.1,12.1-8.4,20.4-20.5,20.5c-12.6,0.1-25.1,0.1-37.7,0C8.5,78.4,0.2,70.1,0,58.2C0,51.9,0,45.5,0,39.2z
			 M54.2,63.6c2.9,0,5.3,0.1,7.8-0.1c0.8-0.3,1.4-1,1.6-1.8c0-7.1,0-14.3-0.4-21.4c-0.3-5.3-3.9-8.5-9.2-8.9
			c-4.5-0.4-8.7,0.1-12,4.1c-0.1-1.7-0.2-2.8-0.2-4.1h-8.4v32h9.1c0-4.9-0.1-9.6,0-14.3c0-2,0.3-4,0.7-6c0.7-2.8,2.8-3.9,5.5-3.8
			s4.5,1.3,5,4c0.3,2,0.5,4,0.6,6.1C54.2,54,54.2,58.6,54.2,63.6z M15,31.4v23.9c0,8.7,0,8.6,8.8,8.4c1.8,0,2.6-0.4,2.5-2.4
			c-0.1-9.5,0-19-0.1-28.5c-0.1-0.5-0.2-1-0.3-1.4H15z M20.7,14.8c-3.1,0.1-5.6,2.5-5.8,5.6c0,3.1,2.5,5.6,5.6,5.8
			c3.1,0,5.6-2.5,5.8-5.6C26.2,17.5,23.7,15,20.7,14.8L20.7,14.8z"/>
	</g>
</g>
</svg>
