<?xml version="1.0" encoding="utf-8"?>
<!-- Generator: Adobe Illustrator 25.0.0, SVG Export Plug-In . SVG Version: 6.00 Build 0)  -->
<svg version="1.1" id="Layer_1" xmlns="http://www.w3.org/2000/svg" xmlns:xlink="http://www.w3.org/1999/xlink" x="0px" y="0px"
	 viewBox="0 0 78.6 78.6" style="enable-background:new 0 0 78.6 78.6;" xml:space="preserve">
<style type="text/css">
	.st0{fill:#FFFFFF;}
</style>
<g id="Layer_2_1_">
	<g id="Layer_1-2">
		<path class="st0" d="M39.4,78.6c-6.2,0-12.5,0-18.7,0C8.4,78.5,0.1,70.2,0.1,57.9S0,33.2,0,20.8S8.4,0.1,20.9,0
			c12.3,0,24.5,0,36.8,0c12.6,0,20.9,8.4,21,21c0,12.3,0,24.5,0,36.8c-0.1,12.4-8.5,20.7-20.9,20.8C51.6,78.6,45.5,78.6,39.4,78.6z
			 M39.5,56.6v0.1c5.4,0,10.8,0.2,16.2-0.1c5-0.2,7.3-2.6,7.5-7.5c0.2-6.6,0.2-13.3,0-19.9C63,24.5,60.8,22,56,21.9
			c-11.1-0.2-22.2-0.2-33.4,0c-4.6,0.1-7,2.6-7.1,7.2c-0.3,6.8-0.2,13.7,0,20.5c0.2,4.5,2.4,6.8,6.9,7
			C28.1,56.9,33.8,56.7,39.5,56.6L39.5,56.6z"/>
		<path class="st0" d="M34.5,31.7l13,7.1l-13,7V31.7z"/>
	</g>
</g>
</svg>
