<?xml version="1.0" encoding="utf-8"?>
<!-- Generator: Adobe Illustrator 25.0.0, SVG Export Plug-In . SVG Version: 6.00 Build 0)  -->
<svg version="1.1" id="Layer_1" xmlns="http://www.w3.org/2000/svg" xmlns:xlink="http://www.w3.org/1999/xlink" x="0px" y="0px"
	 viewBox="0 0 512 512" style="enable-background:new 0 0 512 512;" xml:space="preserve">
<style type="text/css">
	.st0{fill:#18206F;}
</style>
<g id="Layer_2_1_">
	<g id="Layer_1-2">
		<g id="kARRpc.tif">
			<path class="st0" d="M506,250.2v11.7c-2.5,9.3-8,16.9-14.7,23.7c-14.3,14.7-28.1,29.9-43.1,43.8c-31.1,28.7-65.5,52.8-104.7,69.4
				C305.5,415,266,421.2,224.9,415c-34.8-5.3-66.5-18.6-96.3-36.7c-43.2-26.3-79.9-60-112.6-98.3c-13.1-15.4-13.5-32.4,0-47.4
				c15-16.6,30.2-33.3,46.6-48.5c35.9-33.4,76-60.4,122.7-76.7C214,97.1,243.6,92.7,274,95.5c33.8,3.1,65.3,14.1,95,30.2
				c46,24.8,84.7,58.3,119.1,97.2C495.4,231.1,503.2,239,506,250.2z M363.7,256c0-59.4-48.2-107.6-107.6-107.6
				S148.6,196.6,148.6,256s48.2,107.6,107.6,107.6c59.3,0.1,107.5-47.9,107.6-107.2C363.7,256.3,363.7,256.2,363.7,256z"/>
			<path class="st0" d="M256.1,333c-42.5,0.5-77.3-33.5-77.8-76c-0.5-42.5,33.5-77.3,76-77.8c0.6,0,1.2,0,1.7,0
				c42.4,0,77,34.6,77,76.9C333,298.5,298.6,332.9,256.1,333z"/>
		</g>
	</g>
</g>
</svg>
